<svg width="456" height="499" viewBox="0 0 456 499"
    xmlns="http://www.w3.org/2000/svg">
    <path d="M158.87 260.99C156.257 259.486 152.917 260.388 151.413 263.002C151.229 263.377 150.847 263.619 150.429 263.619C150.007 263.619 149.628 263.377 149.444 263.002C147.933 260.381 144.585 259.482 141.968 260.994C139.35 262.506 138.452 265.849 139.96 268.471C142.097 272.24 146.097 274.568 150.429 274.568C154.761 274.568 158.761 272.24 160.894 268.471C161.62 267.209 161.816 265.713 161.437 264.31C161.058 262.904 160.136 261.709 158.87 260.99H158.87Z"/>
    <path d="M208.57 260.99C205.949 259.49 202.613 260.396 201.109 263.013C200.91 263.365 200.531 263.58 200.125 263.568C199.715 263.58 199.336 263.361 199.141 263.002C197.629 260.381 194.285 259.482 191.664 260.994C189.047 262.506 188.148 265.849 189.656 268.471C191.801 272.248 195.816 274.58 200.16 274.564C204.504 274.553 208.504 272.197 210.625 268.404C212.09 265.787 211.172 262.478 208.57 260.99H208.57Z"/>
    <path d="M6.26009 498.45C7.70929 498.45 9.09989 497.876 10.1273 496.848C11.1546 495.825 11.7289 494.434 11.7289 492.981V386.361C11.7289 379.978 14.2641 373.857 18.7758 369.345C23.2875 364.834 29.4088 362.298 35.7918 362.298H310.162C316.545 362.298 322.666 364.834 327.178 369.345C331.689 373.857 334.225 379.978 334.225 386.361V458.463C324.58 457.155 315.737 452.401 309.33 445.076C302.919 437.756 299.38 428.357 299.365 418.627V381.627C299.365 378.604 296.92 376.158 293.896 376.158C290.877 376.158 288.427 378.604 288.427 381.627V418.627C288.443 431.26 293.13 443.443 301.583 452.83C310.036 462.217 321.661 468.15 334.224 469.486V487.509H34.4143C31.3948 487.509 28.9455 489.958 28.9455 492.978C28.9455 496.001 31.3947 498.447 34.4143 498.447H339.694C341.144 498.447 342.534 497.873 343.561 496.845C344.589 495.822 345.163 494.431 345.163 492.978V469.443C357.671 468.049 369.229 462.099 377.628 452.724C386.026 443.349 390.679 431.212 390.694 418.626V165.176C400.292 164.176 409.178 159.657 415.639 152.492C422.104 145.328 425.686 136.027 425.694 126.379V61.234C425.694 59.7848 425.12 58.3942 424.092 57.3668C423.069 56.3434 421.678 55.7652 420.225 55.7652H390.694V35.9682H444.647L444.651 492.978C444.651 496.002 447.1 498.447 450.12 498.447C453.14 498.447 455.589 496.002 455.589 492.978V5.89824C455.589 2.87874 453.14 0.429443 450.12 0.429443C447.1 0.429443 444.651 2.87864 444.651 5.89824V25.0272H359.229V5.89824C359.229 2.87874 356.78 0.429443 353.76 0.429443C350.741 0.429443 348.292 2.87864 348.292 5.89824V30.4962C348.292 31.9493 348.866 33.34 349.893 34.3634C350.917 35.3907 352.307 35.965 353.76 35.965H379.713V55.762H350.182C347.163 55.762 344.714 58.2112 344.714 61.2308V126.376C344.725 136.024 348.311 145.325 354.773 152.489C361.233 159.649 370.121 164.169 379.714 165.173V418.623C379.702 428.303 376.202 437.654 369.858 444.963C363.51 452.271 354.745 457.053 345.163 458.424V386.358C345.163 377.077 341.476 368.174 334.913 361.608C328.347 355.045 319.444 351.358 310.163 351.358H301.511V239.038C301.487 220.936 294.288 203.581 281.488 190.784C268.687 177.983 251.332 170.784 233.23 170.764H232.507C221.132 154.557 202.573 144.905 182.773 144.897H167.562C147.734 144.858 129.144 154.518 117.785 170.764H114.012C95.9097 170.783 78.5587 177.983 65.7577 190.784C52.9567 203.585 45.7577 220.936 45.7377 239.038V351.398H35.7533C34.4291 351.402 33.1088 351.48 31.7924 351.628V153.658C31.7924 150.639 29.3432 148.19 26.3236 148.19C23.3041 148.19 20.8548 150.639 20.8548 153.658V354.798C14.8626 357.626 9.79583 362.099 6.24583 367.696C2.69503 373.29 0.804431 379.778 0.796631 386.407V493.027C0.827881 496.027 3.26544 498.441 6.26544 498.441L6.26009 498.45ZM355.66 126.38V66.704H414.722V126.38C414.71 133.126 412.277 139.646 407.859 144.747C403.441 149.845 397.336 153.188 390.66 154.161V144.013C390.66 140.99 388.211 138.544 385.191 138.544C382.171 138.544 379.722 140.99 379.722 144.013V154.161C373.046 153.188 366.941 149.845 362.523 144.747C358.105 139.645 355.672 133.126 355.66 126.38H355.66ZM176.8 329.22H173.519C158.749 329.201 144.593 323.326 134.152 312.88C123.707 302.439 117.832 288.282 117.812 273.517V222.228L224.782 178.927C226.856 182.177 228.544 185.654 229.801 189.298C229.88 189.517 229.942 189.736 230.008 189.966L128.078 231.22C125.641 232.197 124.246 234.767 124.746 237.341C125.25 239.915 127.508 241.775 130.133 241.763C130.836 241.763 131.528 241.622 132.18 241.361L193.692 216.455L215.567 224.427L215.95 231.384C215.997 236.228 217.637 240.923 220.626 244.739C223.61 248.56 227.774 251.282 232.466 252.493V273.516C232.446 288.274 226.575 302.426 216.142 312.868C205.708 323.306 191.564 329.188 176.806 329.22L176.8 329.22ZM102.425 258.904C102.429 255.568 104.105 252.463 106.886 250.623V267.193C104.073 265.369 102.37 262.255 102.347 258.904L102.425 258.904ZM117.823 205.627C117.827 197.897 119.62 190.268 123.061 183.346L153.194 196.112L117.78 210.44L117.823 205.627ZM232.543 205.627V240.815C229.098 238.854 226.969 235.198 226.965 231.233C226.973 231.131 226.973 231.03 226.965 230.924L226.375 220.229C226.258 218.042 224.848 216.136 222.789 215.386L208.875 210.331L232.313 200.839C232.415 202.425 232.501 204.018 232.501 205.628L232.543 205.627ZM243.481 250.623C246.27 252.459 247.946 255.572 247.946 258.908C247.946 262.244 246.27 265.357 243.481 267.193V250.623ZM182.766 155.85C195.786 155.862 208.282 160.963 217.582 170.069L197.809 178.077L151.563 158.475C156.723 156.737 162.129 155.85 167.575 155.85L182.766 155.85ZM138.883 164.916H138.887C139.043 165.018 139.207 165.104 139.379 165.182L183.469 183.862L167.531 190.303L129.086 174.03C131.91 170.566 135.192 167.499 138.844 164.917L138.883 164.916ZM56.7111 239.049V239.053C56.7306 224.252 62.465 210.03 72.7191 199.358C82.9732 188.686 96.9531 182.385 111.739 181.772C108.54 189.319 106.891 197.432 106.884 205.627V238.791C100.923 240.409 95.9856 244.584 93.4036 250.197C90.8255 255.811 90.8645 262.275 93.5169 267.857C96.1653 273.435 101.154 277.549 107.134 279.095C108.149 291.044 112.364 302.501 119.341 312.259C126.317 322.013 135.794 329.712 146.775 334.536V342.599V342.595C146.775 345.618 149.22 348.064 152.244 348.064C155.263 348.064 157.712 345.618 157.712 342.595V338.22C162.857 339.493 168.138 340.146 173.439 340.157H176.721C182.053 340.157 187.369 339.517 192.549 338.243V342.618C192.549 345.638 194.994 348.087 198.017 348.087C201.037 348.087 203.486 345.638 203.486 342.618V334.556C214.459 329.724 223.927 322.025 230.9 312.271C237.873 302.517 242.091 291.064 243.111 279.115C249.092 277.572 254.08 273.455 256.732 267.877C259.381 262.299 259.424 255.83 256.842 250.221C254.26 244.608 249.322 240.428 243.362 238.811V205.627C243.412 198.857 242.326 192.123 240.159 185.709C239.709 184.439 239.229 183.205 238.705 181.978C252.9 183.346 266.08 189.947 275.678 200.498C285.276 211.045 290.604 224.791 290.623 239.053V351.413H56.6734L56.7111 239.049Z"/>
    <path d="M26.3201 135.53H315V334.69C315 337.71 317.449 340.159 320.469 340.159C323.492 340.159 325.938 337.71 325.938 334.69V130.06C325.938 128.607 325.363 127.216 324.336 126.193C323.313 125.166 321.922 124.591 320.469 124.591H26.3189C23.2994 124.591 20.8501 127.041 20.8501 130.06C20.8501 133.08 23.2993 135.529 26.3189 135.529L26.3201 135.53Z"/>
</svg>
