<svg width="1861" height="515" viewBox="0 0 1861 515" fill="none" xmlns="http://www.w3.org/2000/svg">
<path d="M643.775 115.174L601.002 287H551.344L617.701 73.7188H648.609L643.775 115.174ZM677.467 287L634.547 115.174L628.98 73.7188H660.475L727.125 287H677.467ZM679.078 207.459V245.105H584.596V207.459H679.078ZM777.369 242.469L803.004 128.504H830.836L823.072 180.213L798.023 287H775.465L777.369 242.469ZM771.803 128.504L787.623 241.883L787.77 287H760.816L729.176 128.504H771.803ZM849.732 239.832L865.553 128.504H908.18L876.832 287H849.879L849.732 239.832ZM834.205 128.504L859.986 241.883L862.184 287H839.479L814.723 180.506L807.252 128.504H834.205ZM995.338 248.768V177.43C995.338 172.742 994.898 169.129 994.02 166.59C993.141 163.953 991.773 162.049 989.918 160.877C988.062 159.705 985.621 159.119 982.594 159.119C979.664 159.119 977.223 159.803 975.27 161.17C973.316 162.439 971.9 164.393 971.021 167.029C970.24 169.568 969.85 172.791 969.85 176.697H925.172C925.172 169.568 926.539 162.928 929.273 156.775C932.008 150.525 935.963 145.057 941.139 140.369C946.314 135.682 952.516 132.068 959.742 129.529C967.066 126.893 975.27 125.574 984.352 125.574C994.996 125.574 1004.52 127.332 1012.92 130.848C1021.31 134.363 1027.96 139.979 1032.84 147.693C1037.72 155.311 1040.16 165.369 1040.16 177.869V247.742C1040.16 257.41 1040.65 264.979 1041.63 270.447C1042.7 275.818 1044.17 280.506 1046.02 284.51V287H1001.34C999.293 282.312 997.779 276.551 996.803 269.715C995.826 262.879 995.338 255.896 995.338 248.768ZM1000.61 190.174L1000.76 215.662H986.988C983.473 215.662 980.445 216.346 977.906 217.713C975.465 219.08 973.414 220.936 971.754 223.279C970.094 225.525 968.873 228.113 968.092 231.043C967.311 233.973 966.92 237.049 966.92 240.271C966.92 244.275 967.408 247.449 968.385 249.793C969.459 252.039 970.875 253.65 972.633 254.627C974.391 255.604 976.441 256.092 978.785 256.092C982.887 256.092 986.354 255.262 989.186 253.602C992.115 251.844 994.264 249.744 995.631 247.303C996.998 244.861 997.389 242.713 996.803 240.857L1004.27 258.436C1002.81 262.049 1001.15 265.711 999.293 269.422C997.535 273.035 995.289 276.404 992.555 279.529C989.918 282.654 986.646 285.145 982.74 287C978.834 288.953 974.049 289.93 968.385 289.93C959.986 289.93 952.271 288.123 945.24 284.51C938.307 280.896 932.74 275.574 928.541 268.543C924.439 261.512 922.389 252.967 922.389 242.908C922.389 235.193 923.609 228.113 926.051 221.668C928.492 215.223 932.252 209.656 937.33 204.969C942.408 200.281 949 196.668 957.105 194.129C965.309 191.492 975.123 190.174 986.549 190.174H1000.61ZM1112.67 61.8535V287H1067.99V61.8535H1112.67ZM1196.75 128.504L1140.8 208.338L1107.84 245.105L1090.11 213.758L1116.19 175.379L1143.58 128.504H1196.75ZM1149.44 287L1116.92 214.49L1149 188.562L1200.27 287H1149.44ZM1275.86 289.93C1264.82 289.93 1255.01 288.318 1246.41 285.096C1237.82 281.873 1230.59 277.186 1224.73 271.033C1218.87 264.783 1214.43 257.215 1211.4 248.328C1208.38 239.344 1206.86 229.139 1206.86 217.713V202.771C1206.86 189.979 1208.23 178.797 1210.96 169.227C1213.79 159.559 1217.9 151.502 1223.27 145.057C1228.64 138.611 1235.38 133.777 1243.48 130.555C1251.59 127.234 1260.91 125.574 1271.46 125.574C1281.32 125.574 1290.06 127.137 1297.68 130.262C1305.3 133.387 1311.7 138.123 1316.87 144.471C1322.05 150.721 1325.95 158.631 1328.59 168.201C1331.32 177.674 1332.69 188.758 1332.69 201.453V222.4H1224.59V192.371H1289.04V187.977C1289.04 181.531 1288.4 176.404 1287.13 172.596C1285.87 168.787 1283.91 166.053 1281.28 164.393C1278.64 162.635 1275.27 161.756 1271.17 161.756C1267.07 161.756 1263.7 162.537 1261.06 164.1C1258.52 165.564 1256.57 167.908 1255.2 171.131C1253.83 174.354 1252.86 178.602 1252.27 183.875C1251.78 189.148 1251.54 195.447 1251.54 202.771V217.713C1251.54 224.842 1252.12 230.75 1253.3 235.438C1254.47 240.027 1256.23 243.689 1258.57 246.424C1260.91 249.061 1263.75 250.965 1267.07 252.137C1270.48 253.211 1274.44 253.748 1278.93 253.748C1285.47 253.748 1291.58 252.625 1297.24 250.379C1303 248.035 1307.89 244.617 1311.89 240.125L1329.91 267.518C1327.08 271.033 1323.12 274.549 1318.04 278.064C1313.06 281.58 1307.01 284.461 1299.88 286.707C1292.85 288.855 1284.84 289.93 1275.86 289.93ZM1430.1 251.404V62H1474.78V287L1434.64 287.146L1430.1 251.404ZM1349.39 214.344V201.893C1349.39 188.904 1350.46 177.625 1352.61 168.055C1354.86 158.484 1358.13 150.574 1362.43 144.324C1366.82 137.977 1372.24 133.289 1378.69 130.262C1385.23 127.137 1392.7 125.574 1401.1 125.574C1408.52 125.574 1414.92 127.527 1420.29 131.434C1425.76 135.242 1430.4 140.613 1434.21 147.547C1438.01 154.48 1441.09 162.635 1443.43 172.01C1445.88 181.385 1447.63 191.541 1448.71 202.479V215.223C1447.44 225.477 1445.63 235.145 1443.29 244.227C1440.94 253.211 1437.87 261.17 1434.06 268.104C1430.25 274.939 1425.61 280.311 1420.14 284.217C1414.67 288.025 1408.28 289.93 1400.95 289.93C1392.55 289.93 1385.13 288.318 1378.69 285.096C1372.24 281.873 1366.82 277.088 1362.43 270.74C1358.13 264.393 1354.86 256.531 1352.61 247.156C1350.46 237.684 1349.39 226.746 1349.39 214.344ZM1393.92 201.893V214.344C1393.92 221.473 1394.21 227.527 1394.8 232.508C1395.39 237.488 1396.41 241.541 1397.88 244.666C1399.34 247.791 1401.29 250.086 1403.74 251.551C1406.28 252.918 1409.45 253.602 1413.26 253.602C1418.24 253.602 1422.29 252.234 1425.42 249.5C1428.64 246.668 1430.98 242.762 1432.45 237.781C1433.91 232.801 1434.6 226.941 1434.5 220.203V197.352C1434.6 191.688 1434.16 186.658 1433.18 182.264C1432.3 177.771 1430.98 174.012 1429.22 170.984C1427.47 167.957 1425.27 165.662 1422.63 164.1C1420 162.537 1416.92 161.756 1413.4 161.756C1409.79 161.756 1406.71 162.488 1404.18 163.953C1401.64 165.418 1399.63 167.762 1398.17 170.984C1396.71 174.109 1395.63 178.211 1394.95 183.289C1394.26 188.367 1393.92 194.568 1393.92 201.893ZM1498.51 214.051V201.6C1498.51 189.1 1500.03 178.113 1503.05 168.641C1506.18 159.168 1510.57 151.258 1516.24 144.91C1521.9 138.562 1528.69 133.777 1536.6 130.555C1544.61 127.234 1553.49 125.574 1563.26 125.574C1573.22 125.574 1582.15 127.234 1590.06 130.555C1598.07 133.777 1604.91 138.562 1610.57 144.91C1616.24 151.258 1620.58 159.168 1623.61 168.641C1626.73 178.113 1628.3 189.1 1628.3 201.6V214.051C1628.3 226.453 1626.73 237.391 1623.61 246.863C1620.58 256.336 1616.24 264.295 1610.57 270.74C1604.91 277.088 1598.07 281.873 1590.06 285.096C1582.15 288.318 1573.32 289.93 1563.55 289.93C1553.69 289.93 1544.75 288.318 1536.74 285.096C1528.83 281.873 1522 277.088 1516.24 270.74C1510.57 264.295 1506.18 256.336 1503.05 246.863C1500.03 237.391 1498.51 226.453 1498.51 214.051ZM1543.19 201.6V214.051C1543.19 221.082 1543.63 227.137 1544.51 232.215C1545.48 237.293 1546.85 241.443 1548.61 244.666C1550.37 247.889 1552.47 250.232 1554.91 251.697C1557.45 253.162 1560.33 253.895 1563.55 253.895C1567.26 253.895 1570.39 253.162 1572.93 251.697C1575.56 250.232 1577.66 247.889 1579.22 244.666C1580.79 241.443 1581.91 237.293 1582.59 232.215C1583.38 227.137 1583.77 221.082 1583.77 214.051V201.6C1583.77 194.666 1583.28 188.709 1582.3 183.729C1581.42 178.65 1580.1 174.5 1578.35 171.277C1576.69 168.055 1574.54 165.662 1571.9 164.1C1569.36 162.537 1566.48 161.756 1563.26 161.756C1560.13 161.756 1557.3 162.537 1554.76 164.1C1552.32 165.662 1550.22 168.055 1548.46 171.277C1546.8 174.5 1545.48 178.65 1544.51 183.729C1543.63 188.709 1543.19 194.666 1543.19 201.6ZM1697 161.756V287H1652.47V128.504H1694.21L1697 161.756ZM1691.29 202.332L1680.15 202.625C1679.96 191.492 1680.93 181.238 1683.08 171.863C1685.23 162.488 1688.45 154.334 1692.75 147.4C1697.14 140.467 1702.61 135.096 1709.16 131.287C1715.7 127.479 1723.37 125.574 1732.15 125.574C1737.82 125.574 1743.04 126.648 1747.83 128.797C1752.61 130.848 1756.71 134.119 1760.13 138.611C1763.65 143.006 1766.33 148.768 1768.19 155.896C1770.14 162.928 1771.12 171.375 1771.12 181.238V287H1726.59V186.951C1726.59 180.018 1726 174.793 1724.83 171.277C1723.76 167.664 1722.14 165.174 1720 163.807C1717.85 162.439 1715.11 161.756 1711.79 161.756C1708.57 161.756 1705.64 162.781 1703 164.832C1700.37 166.883 1698.17 169.764 1696.41 173.475C1694.65 177.088 1693.34 181.385 1692.46 186.365C1691.58 191.248 1691.19 196.57 1691.29 202.332ZM1766.43 200.281L1752.52 201.453C1752.32 190.613 1753.2 180.604 1755.15 171.424C1757.2 162.244 1760.33 154.236 1764.53 147.4C1768.82 140.467 1774.15 135.096 1780.49 131.287C1786.94 127.479 1794.51 125.574 1803.2 125.574C1809.45 125.574 1815.11 126.648 1820.19 128.797C1825.37 130.945 1829.81 134.412 1833.52 139.197C1837.23 143.885 1840.11 150.135 1842.16 157.947C1844.21 165.76 1845.24 175.33 1845.24 186.658V287H1800.56V186.658C1800.56 179.822 1799.98 174.646 1798.8 171.131C1797.73 167.518 1796.07 165.076 1793.82 163.807C1791.68 162.439 1789.09 161.756 1786.06 161.756C1782.64 161.756 1779.71 162.732 1777.27 164.686C1774.93 166.639 1772.93 169.373 1771.27 172.889C1769.61 176.404 1768.38 180.506 1767.6 185.193C1766.82 189.783 1766.43 194.812 1766.43 200.281Z" fill="#3880FF"/>
<path d="M609.41 385.105V395.994H579.869V385.105H609.41ZM583.287 355.906V427H570.201V355.906H583.287ZM619.225 355.906V427H606.236V355.906H619.225ZM651.646 427.977C648.131 427.977 645.006 427.439 642.271 426.365C639.57 425.291 637.275 423.729 635.387 421.678C633.499 419.627 632.05 417.104 631.041 414.109C630.064 411.115 629.576 407.68 629.576 403.807V399.07C629.576 394.676 630.081 390.867 631.09 387.645C632.099 384.389 633.499 381.704 635.289 379.588C637.112 377.439 639.293 375.844 641.832 374.803C644.404 373.729 647.236 373.191 650.328 373.191C653.648 373.191 656.546 373.745 659.02 374.852C661.526 375.926 663.593 377.537 665.221 379.686C666.848 381.834 668.053 384.503 668.834 387.693C669.648 390.851 670.055 394.513 670.055 398.68V404.686H635.191V395.555H657.75V394.334C657.685 392.055 657.408 390.118 656.92 388.523C656.432 386.928 655.65 385.724 654.576 384.91C653.535 384.064 652.102 383.641 650.279 383.641C648.847 383.641 647.61 383.934 646.568 384.52C645.527 385.073 644.68 385.952 644.029 387.156C643.411 388.328 642.939 389.907 642.613 391.893C642.288 393.846 642.125 396.238 642.125 399.07V403.807C642.125 406.313 642.353 408.445 642.809 410.203C643.264 411.928 643.932 413.344 644.811 414.451C645.689 415.525 646.764 416.307 648.033 416.795C649.303 417.283 650.784 417.527 652.477 417.527C655.016 417.527 657.245 417.072 659.166 416.16C661.087 415.216 662.747 413.963 664.146 412.4L669.371 420.066C668.427 421.336 667.141 422.589 665.514 423.826C663.886 425.031 661.917 426.023 659.605 426.805C657.327 427.586 654.674 427.977 651.646 427.977ZM702.477 415.574V390.184C702.477 388.458 702.249 387.091 701.793 386.082C701.37 385.073 700.735 384.34 699.889 383.885C699.042 383.396 698.001 383.152 696.764 383.152C695.429 383.152 694.306 383.429 693.395 383.982C692.483 384.503 691.799 385.268 691.344 386.277C690.921 387.254 690.709 388.41 690.709 389.744H678.16C678.16 387.531 678.6 385.431 679.479 383.445C680.357 381.46 681.627 379.702 683.287 378.172C684.947 376.609 686.949 375.389 689.293 374.51C691.637 373.631 694.257 373.191 697.154 373.191C700.605 373.191 703.665 373.777 706.334 374.949C709.036 376.089 711.152 377.928 712.682 380.467C714.244 382.973 715.025 386.261 715.025 390.33V414.451C715.025 417.153 715.172 419.448 715.465 421.336C715.79 423.224 716.262 424.835 716.881 426.17V427H704.186C703.632 425.633 703.209 423.908 702.916 421.824C702.623 419.708 702.477 417.625 702.477 415.574ZM704.088 394.773L704.137 402.586H698.863C697.398 402.586 696.096 402.798 694.957 403.221C693.85 403.644 692.906 404.246 692.125 405.027C691.344 405.809 690.758 406.736 690.367 407.811C689.977 408.885 689.781 410.057 689.781 411.326C689.781 412.791 689.993 414.012 690.416 414.988C690.839 415.932 691.458 416.648 692.271 417.137C693.085 417.592 694.078 417.82 695.25 417.82C696.91 417.82 698.342 417.462 699.547 416.746C700.784 416.03 701.712 415.184 702.33 414.207C702.981 413.198 703.225 412.254 703.062 411.375L705.895 416.453C705.569 417.658 705.064 418.927 704.381 420.262C703.697 421.596 702.818 422.85 701.744 424.021C700.702 425.193 699.417 426.154 697.887 426.902C696.389 427.618 694.615 427.977 692.564 427.977C689.667 427.977 687.047 427.342 684.703 426.072C682.392 424.803 680.569 423.012 679.234 420.701C677.9 418.357 677.232 415.558 677.232 412.303C677.232 409.633 677.672 407.225 678.551 405.076C679.43 402.928 680.715 401.089 682.408 399.559C684.133 398.029 686.314 396.857 688.951 396.043C691.588 395.197 694.68 394.773 698.229 394.773H704.088ZM739.146 352V427H726.598V352H739.146ZM772.838 374.168V383.689H746.422V374.168H772.838ZM753.062 361.18H765.514V411.57C765.514 413.133 765.676 414.321 766.002 415.135C766.327 415.949 766.799 416.502 767.418 416.795C768.069 417.088 768.85 417.234 769.762 417.234C770.445 417.234 771.096 417.186 771.715 417.088C772.333 416.99 772.789 416.893 773.082 416.795L773.033 426.756C772.089 427.114 771.048 427.407 769.908 427.635C768.769 427.863 767.402 427.977 765.807 427.977C763.268 427.977 761.038 427.472 759.117 426.463C757.229 425.454 755.748 423.826 754.674 421.58C753.6 419.334 753.062 416.372 753.062 412.693V361.18ZM793.395 352V427H780.846V352H793.395ZM791.393 398.729L787.73 398.777C787.698 395.099 788.072 391.697 788.854 388.572C789.667 385.447 790.823 382.745 792.32 380.467C793.818 378.156 795.624 376.365 797.74 375.096C799.889 373.826 802.265 373.191 804.869 373.191C807.018 373.191 808.987 373.566 810.777 374.314C812.568 375.031 814.114 376.186 815.416 377.781C816.718 379.376 817.711 381.46 818.395 384.031C819.111 386.57 819.469 389.679 819.469 393.357V427H806.92V393.26C806.92 390.883 806.676 388.995 806.188 387.596C805.699 386.196 804.951 385.203 803.941 384.617C802.965 384.031 801.744 383.738 800.279 383.738C798.749 383.738 797.415 384.129 796.275 384.91C795.169 385.691 794.241 386.766 793.492 388.133C792.776 389.5 792.239 391.095 791.881 392.918C791.555 394.708 791.393 396.645 791.393 398.729ZM858.531 355.906H870.201L885.68 406.688L901.012 355.906H911.607L890.514 427H880.748L858.531 355.906ZM853.99 355.906H864.977L866.686 402V427H853.99V355.906ZM906.236 355.906H917.271V427H904.576V402L906.236 355.906ZM952.867 415.574V390.184C952.867 388.458 952.639 387.091 952.184 386.082C951.76 385.073 951.126 384.34 950.279 383.885C949.433 383.396 948.391 383.152 947.154 383.152C945.82 383.152 944.697 383.429 943.785 383.982C942.874 384.503 942.19 385.268 941.734 386.277C941.311 387.254 941.1 388.41 941.1 389.744H928.551C928.551 387.531 928.99 385.431 929.869 383.445C930.748 381.46 932.018 379.702 933.678 378.172C935.338 376.609 937.34 375.389 939.684 374.51C942.027 373.631 944.648 373.191 947.545 373.191C950.995 373.191 954.055 373.777 956.725 374.949C959.426 376.089 961.542 377.928 963.072 380.467C964.635 382.973 965.416 386.261 965.416 390.33V414.451C965.416 417.153 965.562 419.448 965.855 421.336C966.181 423.224 966.653 424.835 967.271 426.17V427H954.576C954.023 425.633 953.6 423.908 953.307 421.824C953.014 419.708 952.867 417.625 952.867 415.574ZM954.479 394.773L954.527 402.586H949.254C947.789 402.586 946.487 402.798 945.348 403.221C944.241 403.644 943.297 404.246 942.516 405.027C941.734 405.809 941.148 406.736 940.758 407.811C940.367 408.885 940.172 410.057 940.172 411.326C940.172 412.791 940.383 414.012 940.807 414.988C941.23 415.932 941.848 416.648 942.662 417.137C943.476 417.592 944.469 417.82 945.641 417.82C947.301 417.82 948.733 417.462 949.938 416.746C951.174 416.03 952.102 415.184 952.721 414.207C953.372 413.198 953.616 412.254 953.453 411.375L956.285 416.453C955.96 417.658 955.455 418.927 954.771 420.262C954.088 421.596 953.209 422.85 952.135 424.021C951.093 425.193 949.807 426.154 948.277 426.902C946.78 427.618 945.006 427.977 942.955 427.977C940.058 427.977 937.438 427.342 935.094 426.072C932.783 424.803 930.96 423.012 929.625 420.701C928.29 418.357 927.623 415.558 927.623 412.303C927.623 409.633 928.062 407.225 928.941 405.076C929.82 402.928 931.106 401.089 932.799 399.559C934.524 398.029 936.705 396.857 939.342 396.043C941.979 395.197 945.071 394.773 948.619 394.773H954.479ZM988.658 385.447V427H976.109V374.168H987.877L988.658 385.447ZM986.607 398.729L982.994 398.777C982.929 394.904 983.303 391.404 984.117 388.279C984.964 385.122 986.168 382.42 987.73 380.174C989.326 377.928 991.214 376.202 993.395 374.998C995.576 373.794 998.001 373.191 1000.67 373.191C1002.75 373.191 1004.64 373.549 1006.33 374.266C1008.06 374.982 1009.54 376.121 1010.78 377.684C1012.01 379.246 1012.97 381.297 1013.66 383.836C1014.34 386.375 1014.68 389.484 1014.68 393.162V427H1002.13V393.064C1002.13 390.688 1001.87 388.833 1001.35 387.498C1000.87 386.131 1000.13 385.171 999.156 384.617C998.212 384.031 996.992 383.738 995.494 383.738C994.094 383.738 992.841 384.129 991.734 384.91C990.628 385.691 989.684 386.766 988.902 388.133C988.154 389.5 987.584 391.095 987.193 392.918C986.803 394.708 986.607 396.645 986.607 398.729ZM1049.25 415.574V390.184C1049.25 388.458 1049.03 387.091 1048.57 386.082C1048.15 385.073 1047.51 384.34 1046.67 383.885C1045.82 383.396 1044.78 383.152 1043.54 383.152C1042.21 383.152 1041.08 383.429 1040.17 383.982C1039.26 384.503 1038.58 385.268 1038.12 386.277C1037.7 387.254 1037.49 388.41 1037.49 389.744H1024.94C1024.94 387.531 1025.38 385.431 1026.26 383.445C1027.13 381.46 1028.4 379.702 1030.06 378.172C1031.72 376.609 1033.73 375.389 1036.07 374.51C1038.41 373.631 1041.03 373.191 1043.93 373.191C1047.38 373.191 1050.44 373.777 1053.11 374.949C1055.81 376.089 1057.93 377.928 1059.46 380.467C1061.02 382.973 1061.8 386.261 1061.8 390.33V414.451C1061.8 417.153 1061.95 419.448 1062.24 421.336C1062.57 423.224 1063.04 424.835 1063.66 426.17V427H1050.96C1050.41 425.633 1049.99 423.908 1049.69 421.824C1049.4 419.708 1049.25 417.625 1049.25 415.574ZM1050.87 394.773L1050.91 402.586H1045.64C1044.18 402.586 1042.87 402.798 1041.73 403.221C1040.63 403.644 1039.68 404.246 1038.9 405.027C1038.12 405.809 1037.54 406.736 1037.14 407.811C1036.75 408.885 1036.56 410.057 1036.56 411.326C1036.56 412.791 1036.77 414.012 1037.19 414.988C1037.62 415.932 1038.24 416.648 1039.05 417.137C1039.86 417.592 1040.86 417.82 1042.03 417.82C1043.69 417.82 1045.12 417.462 1046.32 416.746C1047.56 416.03 1048.49 415.184 1049.11 414.207C1049.76 413.198 1050 412.254 1049.84 411.375L1052.67 416.453C1052.35 417.658 1051.84 418.927 1051.16 420.262C1050.47 421.596 1049.6 422.85 1048.52 424.021C1047.48 425.193 1046.19 426.154 1044.66 426.902C1043.17 427.618 1041.39 427.977 1039.34 427.977C1036.44 427.977 1033.82 427.342 1031.48 426.072C1029.17 424.803 1027.35 423.012 1026.01 420.701C1024.68 418.357 1024.01 415.558 1024.01 412.303C1024.01 409.633 1024.45 407.225 1025.33 405.076C1026.21 402.928 1027.49 401.089 1029.19 399.559C1030.91 398.029 1033.09 396.857 1035.73 396.043C1038.37 395.197 1041.46 394.773 1045.01 394.773H1050.87ZM1100.67 374.168H1112.05V427.098C1112.05 431.883 1111.15 435.805 1109.36 438.865C1107.57 441.925 1105.08 444.171 1101.89 445.604C1098.73 447.068 1095.04 447.801 1090.81 447.801C1089.21 447.801 1087.39 447.573 1085.34 447.117C1083.29 446.661 1081.29 445.962 1079.33 445.018C1077.41 444.074 1075.82 442.934 1074.55 441.6L1078.94 432.908C1080.34 434.308 1082.07 435.447 1084.12 436.326C1086.2 437.205 1088.22 437.645 1090.17 437.645C1092.16 437.645 1093.83 437.319 1095.2 436.668C1096.6 436.017 1097.66 434.926 1098.38 433.396C1099.09 431.899 1099.45 429.848 1099.45 427.244V386.277L1100.67 374.168ZM1071.03 402.586V398.777C1071.03 394.448 1071.42 390.688 1072.2 387.498C1073.02 384.275 1074.19 381.606 1075.72 379.49C1077.28 377.374 1079.17 375.796 1081.38 374.754C1083.6 373.712 1086.09 373.191 1088.85 373.191C1091.72 373.191 1094.13 373.81 1096.08 375.047C1098.03 376.251 1099.63 377.96 1100.87 380.174C1102.1 382.387 1103.06 385.024 1103.75 388.084C1104.43 391.111 1104.95 394.448 1105.31 398.094V403.562C1104.98 407.046 1104.41 410.285 1103.6 413.279C1102.82 416.274 1101.76 418.862 1100.43 421.043C1099.12 423.224 1097.51 424.933 1095.59 426.17C1093.7 427.374 1091.43 427.977 1088.76 427.977C1086.02 427.977 1083.55 427.439 1081.33 426.365C1079.15 425.258 1077.28 423.647 1075.72 421.531C1074.19 419.383 1073.02 416.73 1072.2 413.572C1071.42 410.382 1071.03 406.72 1071.03 402.586ZM1083.58 398.777V402.586C1083.58 405.158 1083.74 407.387 1084.07 409.275C1084.43 411.131 1084.95 412.661 1085.63 413.865C1086.35 415.037 1087.26 415.916 1088.37 416.502C1089.47 417.055 1090.79 417.332 1092.32 417.332C1094.4 417.332 1096.08 416.844 1097.35 415.867C1098.62 414.891 1099.58 413.556 1100.23 411.863C1100.88 410.138 1101.3 408.185 1101.5 406.004V395.701C1101.37 393.943 1101.09 392.332 1100.67 390.867C1100.28 389.402 1099.71 388.149 1098.96 387.107C1098.24 386.033 1097.33 385.203 1096.23 384.617C1095.15 384.031 1093.88 383.738 1092.42 383.738C1090.92 383.738 1089.6 384.048 1088.46 384.666C1087.36 385.252 1086.44 386.147 1085.73 387.352C1085.01 388.556 1084.48 390.118 1084.12 392.039C1083.76 393.927 1083.58 396.173 1083.58 398.777ZM1143.54 427.977C1140.03 427.977 1136.9 427.439 1134.17 426.365C1131.46 425.291 1129.17 423.729 1127.28 421.678C1125.39 419.627 1123.94 417.104 1122.94 414.109C1121.96 411.115 1121.47 407.68 1121.47 403.807V399.07C1121.47 394.676 1121.98 390.867 1122.98 387.645C1123.99 384.389 1125.39 381.704 1127.18 379.588C1129.01 377.439 1131.19 375.844 1133.73 374.803C1136.3 373.729 1139.13 373.191 1142.22 373.191C1145.54 373.191 1148.44 373.745 1150.91 374.852C1153.42 375.926 1155.49 377.537 1157.12 379.686C1158.74 381.834 1159.95 384.503 1160.73 387.693C1161.54 390.851 1161.95 394.513 1161.95 398.68V404.686H1127.09V395.555H1149.64V394.334C1149.58 392.055 1149.3 390.118 1148.81 388.523C1148.33 386.928 1147.54 385.724 1146.47 384.91C1145.43 384.064 1144 383.641 1142.17 383.641C1140.74 383.641 1139.5 383.934 1138.46 384.52C1137.42 385.073 1136.57 385.952 1135.92 387.156C1135.31 388.328 1134.83 389.907 1134.51 391.893C1134.18 393.846 1134.02 396.238 1134.02 399.07V403.807C1134.02 406.313 1134.25 408.445 1134.7 410.203C1135.16 411.928 1135.83 413.344 1136.71 414.451C1137.58 415.525 1138.66 416.307 1139.93 416.795C1141.2 417.283 1142.68 417.527 1144.37 417.527C1146.91 417.527 1149.14 417.072 1151.06 416.16C1152.98 415.216 1154.64 413.963 1156.04 412.4L1161.27 420.066C1160.32 421.336 1159.04 422.589 1157.41 423.826C1155.78 425.031 1153.81 426.023 1151.5 426.805C1149.22 427.586 1146.57 427.977 1143.54 427.977ZM1183.09 385.008V427H1170.54V374.168H1182.31L1183.09 385.008ZM1181.19 398.729L1177.33 398.777C1177.3 395.099 1177.64 391.697 1178.36 388.572C1179.07 385.447 1180.16 382.745 1181.63 380.467C1183.09 378.156 1184.93 376.365 1187.14 375.096C1189.39 373.826 1192.01 373.191 1195.01 373.191C1196.96 373.191 1198.75 373.549 1200.38 374.266C1202.04 374.949 1203.47 376.04 1204.67 377.537C1205.91 379.002 1206.85 380.923 1207.51 383.299C1208.19 385.643 1208.53 388.458 1208.53 391.746V427H1196.03V393.162C1196.03 390.721 1195.77 388.833 1195.25 387.498C1194.76 386.131 1194.03 385.171 1193.05 384.617C1192.11 384.031 1190.94 383.738 1189.54 383.738C1188.07 383.738 1186.79 384.129 1185.68 384.91C1184.61 385.659 1183.74 386.733 1183.09 388.133C1182.44 389.5 1181.95 391.095 1181.63 392.918C1181.3 394.708 1181.15 396.645 1181.19 398.729ZM1207.55 396.531L1202.38 397.459C1202.35 394.106 1202.67 390.965 1203.36 388.035C1204.07 385.105 1205.15 382.534 1206.58 380.32C1208.01 378.074 1209.82 376.333 1212 375.096C1214.18 373.826 1216.72 373.191 1219.62 373.191C1221.8 373.191 1223.77 373.549 1225.52 374.266C1227.31 374.982 1228.84 376.137 1230.11 377.732C1231.38 379.295 1232.34 381.346 1232.99 383.885C1233.68 386.391 1234.02 389.451 1234.02 393.064V427H1221.47V393.064C1221.47 390.558 1221.21 388.637 1220.69 387.303C1220.17 385.936 1219.42 385.008 1218.44 384.52C1217.5 383.999 1216.36 383.738 1215.03 383.738C1213.79 383.738 1212.7 384.08 1211.75 384.764C1210.84 385.415 1210.06 386.326 1209.41 387.498C1208.79 388.67 1208.32 390.021 1207.99 391.551C1207.7 393.081 1207.55 394.741 1207.55 396.531ZM1265.71 427.977C1262.19 427.977 1259.07 427.439 1256.33 426.365C1253.63 425.291 1251.34 423.729 1249.45 421.678C1247.56 419.627 1246.11 417.104 1245.1 414.109C1244.13 411.115 1243.64 407.68 1243.64 403.807V399.07C1243.64 394.676 1244.14 390.867 1245.15 387.645C1246.16 384.389 1247.56 381.704 1249.35 379.588C1251.17 377.439 1253.36 375.844 1255.89 374.803C1258.47 373.729 1261.3 373.191 1264.39 373.191C1267.71 373.191 1270.61 373.745 1273.08 374.852C1275.59 375.926 1277.66 377.537 1279.28 379.686C1280.91 381.834 1282.12 384.503 1282.9 387.693C1283.71 390.851 1284.12 394.513 1284.12 398.68V404.686H1249.25V395.555H1271.81V394.334C1271.75 392.055 1271.47 390.118 1270.98 388.523C1270.49 386.928 1269.71 385.724 1268.64 384.91C1267.6 384.064 1266.16 383.641 1264.34 383.641C1262.91 383.641 1261.67 383.934 1260.63 384.52C1259.59 385.073 1258.74 385.952 1258.09 387.156C1257.47 388.328 1257 389.907 1256.68 391.893C1256.35 393.846 1256.19 396.238 1256.19 399.07V403.807C1256.19 406.313 1256.42 408.445 1256.87 410.203C1257.33 411.928 1257.99 413.344 1258.87 414.451C1259.75 415.525 1260.83 416.307 1262.1 416.795C1263.37 417.283 1264.85 417.527 1266.54 417.527C1269.08 417.527 1271.31 417.072 1273.23 416.16C1275.15 415.216 1276.81 413.963 1278.21 412.4L1283.43 420.066C1282.49 421.336 1281.2 422.589 1279.58 423.826C1277.95 425.031 1275.98 426.023 1273.67 426.805C1271.39 427.586 1268.74 427.977 1265.71 427.977ZM1304.97 385.447V427H1292.42V374.168H1304.19L1304.97 385.447ZM1302.92 398.729L1299.3 398.777C1299.24 394.904 1299.61 391.404 1300.43 388.279C1301.27 385.122 1302.48 382.42 1304.04 380.174C1305.63 377.928 1307.52 376.202 1309.7 374.998C1311.88 373.794 1314.31 373.191 1316.98 373.191C1319.06 373.191 1320.95 373.549 1322.64 374.266C1324.37 374.982 1325.85 376.121 1327.09 377.684C1328.32 379.246 1329.28 381.297 1329.97 383.836C1330.65 386.375 1330.99 389.484 1330.99 393.162V427H1318.44V393.064C1318.44 390.688 1318.18 388.833 1317.66 387.498C1317.17 386.131 1316.44 385.171 1315.46 384.617C1314.52 384.031 1313.3 383.738 1311.8 383.738C1310.4 383.738 1309.15 384.129 1308.04 384.91C1306.94 385.691 1305.99 386.766 1305.21 388.133C1304.46 389.5 1303.89 391.095 1303.5 392.918C1303.11 394.708 1302.92 396.645 1302.92 398.729ZM1363.85 374.168V383.689H1337.44V374.168H1363.85ZM1344.08 361.18H1356.53V411.57C1356.53 413.133 1356.69 414.321 1357.02 415.135C1357.34 415.949 1357.82 416.502 1358.43 416.795C1359.08 417.088 1359.87 417.234 1360.78 417.234C1361.46 417.234 1362.11 417.186 1362.73 417.088C1363.35 416.99 1363.8 416.893 1364.1 416.795L1364.05 426.756C1363.1 427.114 1362.06 427.407 1360.92 427.635C1359.78 427.863 1358.42 427.977 1356.82 427.977C1354.28 427.977 1352.05 427.472 1350.13 426.463C1348.24 425.454 1346.76 423.826 1345.69 421.58C1344.62 419.334 1344.08 416.372 1344.08 412.693V361.18Z" fill="#222428"/>
<mask id="path-3-inside-1_30_68" fill="white">
<rect width="515" height="515" rx="3"/>
</mask>
<rect width="515" height="515" rx="3" fill="#3880FF" stroke="white" stroke-width="58" mask="url(#path-3-inside-1_30_68)"/>
<g filter="url(#filter0_i_30_68)">
<rect x="10" y="10" width="495" height="495" fill="#3880FF"/>
</g>
<path d="M257.641 191.543L205.639 360H150.414L228.783 146.719H263.793L257.641 191.543ZM300.707 360L248.559 191.543L241.82 146.719H277.27L356.078 360H300.707ZM298.656 280.459V320.156H189.232V280.459H298.656Z" fill="white"/>
<defs>
<filter id="filter0_i_30_68" x="10" y="10" width="495" height="495" filterUnits="userSpaceOnUse" color-interpolation-filters="sRGB">
<feFlood flood-opacity="0" result="BackgroundImageFix"/>
<feBlend mode="normal" in="SourceGraphic" in2="BackgroundImageFix" result="shape"/>
<feColorMatrix in="SourceAlpha" type="matrix" values="0 0 0 0 0 0 0 0 0 0 0 0 0 0 0 0 0 0 127 0" result="hardAlpha"/>
<feMorphology radius="30" operator="erode" in="SourceAlpha" result="effect1_innerShadow_30_68"/>
<feOffset/>
<feGaussianBlur stdDeviation="70.5"/>
<feComposite in2="hardAlpha" operator="arithmetic" k2="-1" k3="1"/>
<feColorMatrix type="matrix" values="0 0 0 0 0.133333 0 0 0 0 0.141176 0 0 0 0 0.156863 0 0 0 1 0"/>
<feBlend mode="normal" in2="shape" result="effect1_innerShadow_30_68"/>
</filter>
</defs>
</svg>
