<svg xmlns="http://www.w3.org/2000/svg" xmlns:xlink="http://www.w3.org/1999/xlink" width="500" zoomAndPan="magnify" viewBox="0 0 375 374.999991" height="500" preserveAspectRatio="xMidYMid meet" version="1.0"><defs><g/><clipPath id="id1"><path d="M 232 14.644531 L 331.792969 14.644531 L 331.792969 131 L 232 131 Z M 232 14.644531 " clip-rule="nonzero"/></clipPath><clipPath id="id2"><path d="M 43.523438 14.644531 L 143 14.644531 L 143 131 L 43.523438 131 Z M 43.523438 14.644531 " clip-rule="nonzero"/></clipPath><clipPath id="id3"><path d="M 50 171 L 147 171 L 147 284.410156 L 50 284.410156 Z M 50 171 " clip-rule="nonzero"/></clipPath><clipPath id="id4"><path d="M 233 171 L 331 171 L 331 284.410156 L 233 284.410156 Z M 233 171 " clip-rule="nonzero"/></clipPath></defs><path fill="#3880ff" d="M 101.394531 187.605469 L 115.644531 187.605469 C 145.894531 176.90625 199.753906 153.183594 231.914062 111.59375 C 229.4375 110.203125 227.765625 107.5625 227.765625 104.523438 L 227.765625 61.464844 C 227.765625 56.988281 224.128906 53.359375 219.644531 53.359375 L 160.773438 53.359375 C 156.289062 53.359375 152.652344 56.988281 152.652344 61.464844 L 152.652344 104.523438 C 152.652344 109 149.019531 112.628906 144.53125 112.628906 L 101.394531 112.628906 C 96.910156 112.628906 93.273438 116.257812 93.273438 120.738281 L 93.273438 179.5 C 93.273438 183.976562 96.910156 187.605469 101.394531 187.605469 " fill-opacity="1" fill-rule="nonzero"/><path fill="#2dd36f" d="M 279.023438 112.628906 L 240.585938 112.628906 C 228.382812 138.289062 203.445312 172.339844 152.652344 200.21875 L 152.652344 238.773438 C 152.652344 243.25 156.289062 246.878906 160.773438 246.878906 L 219.644531 246.878906 C 224.128906 246.878906 227.765625 243.25 227.765625 238.773438 L 227.765625 195.710938 C 227.765625 191.238281 231.398438 187.605469 235.886719 187.605469 L 279.023438 187.605469 C 283.507812 187.605469 287.144531 183.976562 287.144531 179.5 L 287.144531 120.738281 C 287.144531 116.257812 283.507812 112.628906 279.023438 112.628906 " fill-opacity="1" fill-rule="nonzero"/><g clip-path="url(#id1)"><path fill="#3880ff" d="M 320.246094 130.074219 C 312.789062 81.441406 279.101562 41.429688 232.328125 25.664062 L 236.054688 14.652344 C 260.707031 22.964844 282.667969 37.894531 299.566406 57.824219 C 316.640625 77.964844 327.769531 102.339844 331.753906 128.316406 L 320.246094 130.074219 " fill-opacity="1" fill-rule="nonzero"/></g><g clip-path="url(#id2)"><path fill="#3880ff" d="M 55.070312 130.074219 C 62.527344 81.441406 96.214844 41.429688 142.988281 25.664062 L 139.265625 14.652344 C 114.609375 22.964844 92.648438 37.894531 75.75 57.824219 C 58.675781 77.964844 47.542969 102.339844 43.5625 128.316406 L 55.070312 130.074219 " fill-opacity="1" fill-rule="nonzero"/></g><g clip-path="url(#id3)"><path fill="#2dd36f" d="M 142.796875 284.433594 C 94.136719 266.691406 58.792969 224.015625 50.554688 173.058594 L 62.050781 171.207031 C 69.617188 218.015625 102.085938 257.21875 146.789062 273.515625 L 142.796875 284.433594 " fill-opacity="1" fill-rule="nonzero"/></g><g clip-path="url(#id4)"><path fill="#2dd36f" d="M 237.917969 284.433594 C 286.578125 266.691406 321.921875 224.015625 330.160156 173.058594 L 318.667969 171.207031 C 311.097656 218.015625 278.628906 257.21875 233.921875 273.515625 L 237.917969 284.433594 " fill-opacity="1" fill-rule="nonzero"/></g><g fill="#28ba62" fill-opacity="1"><g transform="translate(90.315264, 358.337876)"><g><path d="M 13.625 0 L 11.078125 0 L 11.0625 -7.390625 L 8.328125 -1.140625 L 6.4375 -1.140625 L 3.71875 -7.390625 L 3.71875 0 L 1.140625 0 L 1.140625 -11.375 L 4.296875 -11.375 L 7.390625 -4.609375 L 10.46875 -11.375 L 13.625 -11.375 Z M 13.625 0 "/></g></g></g><g fill="#28ba62" fill-opacity="1"><g transform="translate(107.427834, 358.337876)"><g><path d="M 10.03125 -9.09375 L 4.03125 -9.09375 L 4.03125 -6.828125 L 9.453125 -6.828125 L 9.453125 -4.5625 L 4.03125 -4.5625 L 4.03125 -2.265625 L 10.21875 -2.265625 L 10.21875 0 L 1.140625 0 L 1.140625 -11.359375 L 10.03125 -11.359375 Z M 10.03125 -9.09375 "/></g></g></g><g fill="#28ba62" fill-opacity="1"><g transform="translate(120.712767, 358.337876)"><g><path d="M 1.140625 -11.359375 L 6.015625 -11.359375 C 7.804688 -11.359375 9.257812 -10.832031 10.375 -9.78125 C 11.5 -8.738281 12.0625 -7.375 12.0625 -5.6875 C 12.0625 -4.007812 11.492188 -2.640625 10.359375 -1.578125 C 9.222656 -0.523438 7.738281 0 5.90625 0 L 1.140625 0 Z M 4.03125 -9.0625 L 4.03125 -2.3125 L 6.09375 -2.3125 C 6.976562 -2.3125 7.703125 -2.617188 8.265625 -3.234375 C 8.835938 -3.859375 9.125 -4.664062 9.125 -5.65625 C 9.125 -6.65625 8.828125 -7.472656 8.234375 -8.109375 C 7.640625 -8.742188 6.878906 -9.0625 5.953125 -9.0625 Z M 4.03125 -9.0625 "/></g></g></g><g fill="#28ba62" fill-opacity="1"><g transform="translate(135.506054, 358.337876)"><g><path d="M 4.03125 0 L 1.140625 0 L 1.140625 -11.359375 L 4.03125 -11.359375 Z M 4.03125 0 "/></g></g></g><g fill="#28ba62" fill-opacity="1"><g transform="translate(143.017111, 358.337876)"><g><path d="M 6.46875 -11.46875 C 7.3125 -11.46875 8.140625 -11.289062 8.953125 -10.9375 C 9.765625 -10.59375 10.460938 -10.128906 11.046875 -9.546875 L 9.375 -7.5625 C 9 -8.019531 8.550781 -8.378906 8.03125 -8.640625 C 7.519531 -8.910156 7.015625 -9.046875 6.515625 -9.046875 C 5.609375 -9.046875 4.851562 -8.726562 4.25 -8.09375 C 3.644531 -7.457031 3.34375 -6.675781 3.34375 -5.75 C 3.34375 -4.789062 3.644531 -3.992188 4.25 -3.359375 C 4.851562 -2.722656 5.609375 -2.40625 6.515625 -2.40625 C 6.984375 -2.40625 7.472656 -2.519531 7.984375 -2.75 C 8.503906 -2.988281 8.96875 -3.316406 9.375 -3.734375 L 11.0625 -1.953125 C 10.4375 -1.316406 9.703125 -0.8125 8.859375 -0.4375 C 8.023438 -0.0625 7.191406 0.125 6.359375 0.125 C 4.648438 0.125 3.226562 -0.429688 2.09375 -1.546875 C 0.957031 -2.660156 0.390625 -4.050781 0.390625 -5.71875 C 0.390625 -7.351562 0.96875 -8.71875 2.125 -9.8125 C 3.28125 -10.914062 4.726562 -11.46875 6.46875 -11.46875 Z M 6.46875 -11.46875 "/></g></g></g><g fill="#28ba62" fill-opacity="1"><g transform="translate(156.59398, 358.337876)"><g><path d="M 8.6875 -2.09375 L 3.71875 -2.09375 L 2.890625 0 L -0.078125 0 L 4.828125 -11.359375 L 7.796875 -11.359375 L 12.578125 0 L 9.5 0 Z M 7.84375 -4.28125 L 6.21875 -8.484375 L 4.5625 -4.28125 Z M 7.84375 -4.28125 "/></g></g></g><g fill="#28ba62" fill-opacity="1"><g transform="translate(171.435913, 358.337876)"><g><path d="M 4.03125 -2.421875 L 8.84375 -2.421875 L 8.84375 0 L 1.140625 0 L 1.140625 -11.359375 L 4.03125 -11.359375 Z M 4.03125 -2.421875 "/></g></g></g><g fill="#28ba62" fill-opacity="1"><g transform="translate(182.871913, 358.337876)"><g/></g></g><g fill="#28ba62" fill-opacity="1"><g transform="translate(188.988151, 358.337876)"><g><path d="M 7.984375 0 L 6.296875 -3.203125 L 4.03125 -3.203125 L 4.03125 0 L 1.140625 0 L 1.140625 -11.359375 L 6.21875 -11.359375 C 7.71875 -11.359375 8.878906 -11.015625 9.703125 -10.328125 C 10.523438 -9.640625 10.9375 -8.664062 10.9375 -7.40625 C 10.9375 -5.644531 10.25 -4.425781 8.875 -3.75 L 11.265625 0 Z M 4.03125 -5.46875 L 6.21875 -5.46875 C 6.84375 -5.46875 7.328125 -5.625 7.671875 -5.9375 C 8.023438 -6.25 8.203125 -6.707031 8.203125 -7.3125 C 8.203125 -7.894531 8.023438 -8.335938 7.671875 -8.640625 C 7.328125 -8.941406 6.84375 -9.09375 6.21875 -9.09375 L 4.03125 -9.09375 Z M 4.03125 -5.46875 "/></g></g></g><g fill="#28ba62" fill-opacity="1"><g transform="translate(203.084021, 358.337876)"><g><path d="M 10.03125 -9.09375 L 4.03125 -9.09375 L 4.03125 -6.828125 L 9.453125 -6.828125 L 9.453125 -4.5625 L 4.03125 -4.5625 L 4.03125 -2.265625 L 10.21875 -2.265625 L 10.21875 0 L 1.140625 0 L 1.140625 -11.359375 L 10.03125 -11.359375 Z M 10.03125 -9.09375 "/></g></g></g><g fill="#28ba62" fill-opacity="1"><g transform="translate(216.368952, 358.337876)"><g><path d="M 6.46875 -11.46875 C 7.3125 -11.46875 8.140625 -11.289062 8.953125 -10.9375 C 9.765625 -10.59375 10.460938 -10.128906 11.046875 -9.546875 L 9.375 -7.5625 C 9 -8.019531 8.550781 -8.378906 8.03125 -8.640625 C 7.519531 -8.910156 7.015625 -9.046875 6.515625 -9.046875 C 5.609375 -9.046875 4.851562 -8.726562 4.25 -8.09375 C 3.644531 -7.457031 3.34375 -6.675781 3.34375 -5.75 C 3.34375 -4.789062 3.644531 -3.992188 4.25 -3.359375 C 4.851562 -2.722656 5.609375 -2.40625 6.515625 -2.40625 C 6.984375 -2.40625 7.472656 -2.519531 7.984375 -2.75 C 8.503906 -2.988281 8.96875 -3.316406 9.375 -3.734375 L 11.0625 -1.953125 C 10.4375 -1.316406 9.703125 -0.8125 8.859375 -0.4375 C 8.023438 -0.0625 7.191406 0.125 6.359375 0.125 C 4.648438 0.125 3.226562 -0.429688 2.09375 -1.546875 C 0.957031 -2.660156 0.390625 -4.050781 0.390625 -5.71875 C 0.390625 -7.351562 0.96875 -8.71875 2.125 -9.8125 C 3.28125 -10.914062 4.726562 -11.46875 6.46875 -11.46875 Z M 6.46875 -11.46875 "/></g></g></g><g fill="#28ba62" fill-opacity="1"><g transform="translate(229.945821, 358.337876)"><g><path d="M 6.53125 -11.46875 C 8.289062 -11.46875 9.753906 -10.914062 10.921875 -9.8125 C 12.085938 -8.71875 12.671875 -7.347656 12.671875 -5.703125 C 12.671875 -4.046875 12.082031 -2.660156 10.90625 -1.546875 C 9.738281 -0.429688 8.273438 0.125 6.515625 0.125 C 4.765625 0.125 3.304688 -0.425781 2.140625 -1.53125 C 0.972656 -2.644531 0.390625 -4.035156 0.390625 -5.703125 C 0.390625 -7.359375 0.972656 -8.734375 2.140625 -9.828125 C 3.304688 -10.921875 4.769531 -11.46875 6.53125 -11.46875 Z M 6.5625 -9.046875 C 5.675781 -9.046875 4.914062 -8.722656 4.28125 -8.078125 C 3.65625 -7.429688 3.34375 -6.628906 3.34375 -5.671875 C 3.34375 -4.722656 3.660156 -3.921875 4.296875 -3.265625 C 4.929688 -2.609375 5.6875 -2.28125 6.5625 -2.28125 C 7.4375 -2.28125 8.175781 -2.609375 8.78125 -3.265625 C 9.394531 -3.921875 9.703125 -4.722656 9.703125 -5.671875 C 9.703125 -6.628906 9.394531 -7.429688 8.78125 -8.078125 C 8.175781 -8.722656 7.4375 -9.046875 6.5625 -9.046875 Z M 6.5625 -9.046875 "/></g></g></g><g fill="#28ba62" fill-opacity="1"><g transform="translate(245.355415, 358.337876)"><g><path d="M 7.984375 0 L 6.296875 -3.203125 L 4.03125 -3.203125 L 4.03125 0 L 1.140625 0 L 1.140625 -11.359375 L 6.21875 -11.359375 C 7.71875 -11.359375 8.878906 -11.015625 9.703125 -10.328125 C 10.523438 -9.640625 10.9375 -8.664062 10.9375 -7.40625 C 10.9375 -5.644531 10.25 -4.425781 8.875 -3.75 L 11.265625 0 Z M 4.03125 -5.46875 L 6.21875 -5.46875 C 6.84375 -5.46875 7.328125 -5.625 7.671875 -5.9375 C 8.023438 -6.25 8.203125 -6.707031 8.203125 -7.3125 C 8.203125 -7.894531 8.023438 -8.335938 7.671875 -8.640625 C 7.328125 -8.941406 6.84375 -9.09375 6.21875 -9.09375 L 4.03125 -9.09375 Z M 4.03125 -5.46875 "/></g></g></g><g fill="#28ba62" fill-opacity="1"><g transform="translate(259.451285, 358.337876)"><g><path d="M 1.140625 -11.359375 L 6.015625 -11.359375 C 7.804688 -11.359375 9.257812 -10.832031 10.375 -9.78125 C 11.5 -8.738281 12.0625 -7.375 12.0625 -5.6875 C 12.0625 -4.007812 11.492188 -2.640625 10.359375 -1.578125 C 9.222656 -0.523438 7.738281 0 5.90625 0 L 1.140625 0 Z M 4.03125 -9.0625 L 4.03125 -2.3125 L 6.09375 -2.3125 C 6.976562 -2.3125 7.703125 -2.617188 8.265625 -3.234375 C 8.835938 -3.859375 9.125 -4.664062 9.125 -5.65625 C 9.125 -6.65625 8.828125 -7.472656 8.234375 -8.109375 C 7.640625 -8.742188 6.878906 -9.0625 5.953125 -9.0625 Z M 4.03125 -9.0625 "/></g></g></g><g fill="#28ba62" fill-opacity="1"><g transform="translate(274.244569, 358.337876)"><g><path d="M 5.5 -11.5 C 7.195312 -11.5 8.691406 -11.078125 9.984375 -10.234375 L 8.890625 -7.96875 C 8.296875 -8.3125 7.65625 -8.59375 6.96875 -8.8125 C 6.289062 -9.039062 5.722656 -9.15625 5.265625 -9.15625 C 4.429688 -9.15625 4.015625 -8.878906 4.015625 -8.328125 C 4.015625 -7.972656 4.21875 -7.6875 4.625 -7.46875 C 5.039062 -7.25 5.539062 -7.0625 6.125 -6.90625 C 6.71875 -6.75 7.304688 -6.554688 7.890625 -6.328125 C 8.484375 -6.109375 8.984375 -5.75 9.390625 -5.25 C 9.804688 -4.757812 10.015625 -4.132812 10.015625 -3.375 C 10.015625 -2.28125 9.585938 -1.425781 8.734375 -0.8125 C 7.878906 -0.207031 6.789062 0.09375 5.46875 0.09375 C 4.53125 0.09375 3.597656 -0.0664062 2.671875 -0.390625 C 1.753906 -0.710938 0.957031 -1.15625 0.28125 -1.71875 L 1.390625 -3.9375 C 1.960938 -3.445312 2.640625 -3.039062 3.421875 -2.71875 C 4.203125 -2.394531 4.894531 -2.234375 5.5 -2.234375 C 5.96875 -2.234375 6.332031 -2.316406 6.59375 -2.484375 C 6.851562 -2.660156 6.984375 -2.910156 6.984375 -3.234375 C 6.984375 -3.546875 6.832031 -3.804688 6.53125 -4.015625 C 6.238281 -4.222656 5.867188 -4.378906 5.421875 -4.484375 C 4.972656 -4.585938 4.488281 -4.722656 3.96875 -4.890625 C 3.457031 -5.066406 2.976562 -5.257812 2.53125 -5.46875 C 2.082031 -5.675781 1.707031 -6.003906 1.40625 -6.453125 C 1.113281 -6.898438 0.96875 -7.4375 0.96875 -8.0625 C 0.96875 -9.101562 1.378906 -9.9375 2.203125 -10.5625 C 3.035156 -11.1875 4.132812 -11.5 5.5 -11.5 Z M 5.5 -11.5 "/></g></g></g><g fill="#118fbf" fill-opacity="1"><g transform="translate(26.124538, 330.371929)"><g><path d="M 0.800781 -0.0273438 C 0.910156 0.0820312 1.050781 0.0820312 1.1875 0.109375 C 2.570312 0.164062 4.089844 0.496094 5.414062 0.0546875 C 7.046875 -0.441406 6.714844 -3.066406 8.621094 -3.066406 C 11.632812 -3.066406 14.644531 -3.011719 17.65625 -3.011719 C 19.148438 -3.011719 20.667969 -3.011719 22.160156 -3.066406 C 23.347656 -3.09375 24.839844 -3.425781 26 -3.175781 C 27.214844 -2.902344 27.242188 -1.105469 28.097656 -0.386719 C 28.707031 0.164062 29.644531 0.164062 30.476562 0.164062 C 31.304688 0.136719 32.160156 0.109375 32.988281 0.109375 C 33.101562 0.109375 33.210938 0.109375 33.292969 0.0546875 C 33.515625 -0.109375 33.347656 -0.46875 33.183594 -0.691406 C 29.121094 -6.160156 25.308594 -11.824219 21.800781 -17.683594 C 21.355469 -18.457031 20.804688 -19.285156 19.949219 -19.535156 C 19.535156 -19.671875 19.0625 -19.617188 18.621094 -19.589844 C 17.074219 -19.449219 13.980469 -19.835938 13.039062 -18.429688 C 9.503906 -13.097656 5.941406 -7.765625 2.402344 -2.460938 C 2.128906 -2.070312 0.359375 -0.550781 0.800781 -0.0273438 Z M 10.832031 -7.15625 C 10.773438 -7.265625 10.746094 -7.347656 10.746094 -7.460938 C 10.773438 -7.679688 10.914062 -7.847656 11.050781 -8.039062 C 12.101562 -9.367188 13.125 -10.746094 14.089844 -12.183594 C 14.589844 -12.929688 15.058594 -13.675781 15.527344 -14.421875 C 15.777344 -14.808594 16.46875 -16.523438 16.855469 -16.660156 C 17.738281 -16.992188 19.3125 -13.425781 19.753906 -12.710938 C 20.859375 -11.050781 22.019531 -9.421875 23.234375 -7.847656 C 23.375 -7.679688 23.511719 -7.460938 23.484375 -7.265625 C 23.292969 -6.328125 20.445312 -7.074219 19.808594 -7.101562 C 17.296875 -7.320312 14.699219 -7.128906 12.183594 -6.796875 C 11.878906 -6.769531 11.578125 -6.714844 11.300781 -6.824219 C 11.105469 -6.878906 10.914062 -6.988281 10.832031 -7.15625 Z M 10.832031 -7.15625 "/></g></g></g><g fill="#118fbf" fill-opacity="1"><g transform="translate(61.847417, 330.371929)"><g><path d="M 48.210938 -19.257812 C 47.824219 -19.0625 47.605469 -18.675781 47.382812 -18.289062 L 41 -7.183594 C 40.613281 -6.519531 39.34375 -3.316406 38.460938 -3.785156 C 37.628906 -4.253906 36.96875 -6.160156 36.554688 -6.960938 C 35.890625 -8.34375 35.199219 -9.699219 34.507812 -11.050781 C 33.816406 -12.460938 33.15625 -13.898438 32.4375 -15.304688 C 32.105469 -15.996094 31.746094 -16.714844 31.359375 -17.40625 C 31.082031 -17.929688 30.835938 -18.703125 30.335938 -19.035156 C 29.976562 -19.285156 29.507812 -19.3125 29.066406 -19.339844 C 28.320312 -19.339844 27.519531 -19.394531 26.746094 -19.394531 C 26.109375 -19.421875 25.003906 -19.644531 24.425781 -19.285156 C 24.203125 -19.148438 24.09375 -18.925781 23.953125 -18.675781 C 22.628906 -16.050781 21.300781 -13.398438 19.949219 -10.746094 C 19.285156 -9.449219 18.621094 -8.152344 17.957031 -6.851562 L 16.964844 -4.917969 C 16.824219 -4.640625 16.496094 -3.34375 15.996094 -3.5625 C 15.859375 -3.648438 15.777344 -3.757812 15.691406 -3.894531 C 12.738281 -8.8125 9.726562 -13.730469 6.824219 -18.734375 C 6.714844 -18.925781 6.574219 -19.148438 6.382812 -19.285156 C 6.1875 -19.367188 5.941406 -19.367188 5.71875 -19.367188 L 1.878906 -19.367188 C 1.769531 -19.367188 1.65625 -19.339844 1.574219 -19.257812 C 1.4375 -19.148438 1.519531 -18.925781 1.628906 -18.761719 L 7.046875 -9.613281 C 7.875 -8.234375 8.703125 -6.824219 9.585938 -5.46875 C 10.058594 -4.78125 10.445312 -3.980469 10.859375 -3.261719 C 11.164062 -2.761719 12.128906 -1.601562 12.128906 -1.023438 C 12.378906 -0.609375 12.652344 -0.164062 13.070312 0.0273438 C 13.425781 0.195312 13.816406 0.164062 14.203125 0.164062 C 15.554688 0.0820312 16.910156 0.0273438 18.261719 -0.0546875 C 18.703125 -0.0820312 19.175781 -0.109375 19.507812 -0.332031 C 19.835938 -0.550781 20.03125 -0.910156 20.195312 -1.269531 L 23.707031 -8.066406 C 24.3125 -9.253906 24.949219 -10.386719 25.5 -11.578125 C 25.75 -12.101562 25.972656 -12.652344 26.21875 -13.179688 C 26.414062 -13.621094 26.691406 -14.421875 27.105469 -14.699219 C 27.574219 -15.03125 28.539062 -12.738281 28.679688 -12.460938 C 29.371094 -10.996094 30.117188 -9.558594 30.863281 -8.09375 L 31.222656 -7.433594 C 31.882812 -6.132812 32.546875 -4.863281 33.238281 -3.5625 L 34.230469 -1.65625 C 34.480469 -1.1875 34.703125 -0.523438 35.144531 -0.222656 C 35.808594 0.222656 37.023438 -0.0273438 37.769531 0 C 38.847656 0 40.640625 0.414062 41.636719 -0.0820312 C 41.96875 -0.25 42.160156 -0.582031 42.355469 -0.882812 C 46.03125 -7.019531 49.675781 -13.152344 53.324219 -19.3125 C 51.941406 -19.449219 50.5625 -19.476562 49.179688 -19.449219 C 48.875 -19.449219 48.542969 -19.421875 48.269531 -19.285156 C 48.242188 -19.285156 48.210938 -19.285156 48.210938 -19.257812 Z M 48.210938 -19.257812 "/></g></g></g><g fill="#118fbf" fill-opacity="1"><g transform="translate(118.19151, 330.371929)"><g><path d="M 0.800781 -0.0273438 C 0.910156 0.0820312 1.050781 0.0820312 1.1875 0.109375 C 2.570312 0.164062 4.089844 0.496094 5.414062 0.0546875 C 7.046875 -0.441406 6.714844 -3.066406 8.621094 -3.066406 C 11.632812 -3.066406 14.644531 -3.011719 17.65625 -3.011719 C 19.148438 -3.011719 20.667969 -3.011719 22.160156 -3.066406 C 23.347656 -3.09375 24.839844 -3.425781 26 -3.175781 C 27.214844 -2.902344 27.242188 -1.105469 28.097656 -0.386719 C 28.707031 0.164062 29.644531 0.164062 30.476562 0.164062 C 31.304688 0.136719 32.160156 0.109375 32.988281 0.109375 C 33.101562 0.109375 33.210938 0.109375 33.292969 0.0546875 C 33.515625 -0.109375 33.347656 -0.46875 33.183594 -0.691406 C 29.121094 -6.160156 25.308594 -11.824219 21.800781 -17.683594 C 21.355469 -18.457031 20.804688 -19.285156 19.949219 -19.535156 C 19.535156 -19.671875 19.0625 -19.617188 18.621094 -19.589844 C 17.074219 -19.449219 13.980469 -19.835938 13.039062 -18.429688 C 9.503906 -13.097656 5.941406 -7.765625 2.402344 -2.460938 C 2.128906 -2.070312 0.359375 -0.550781 0.800781 -0.0273438 Z M 10.832031 -7.15625 C 10.773438 -7.265625 10.746094 -7.347656 10.746094 -7.460938 C 10.773438 -7.679688 10.914062 -7.847656 11.050781 -8.039062 C 12.101562 -9.367188 13.125 -10.746094 14.089844 -12.183594 C 14.589844 -12.929688 15.058594 -13.675781 15.527344 -14.421875 C 15.777344 -14.808594 16.46875 -16.523438 16.855469 -16.660156 C 17.738281 -16.992188 19.3125 -13.425781 19.753906 -12.710938 C 20.859375 -11.050781 22.019531 -9.421875 23.234375 -7.847656 C 23.375 -7.679688 23.511719 -7.460938 23.484375 -7.265625 C 23.292969 -6.328125 20.445312 -7.074219 19.808594 -7.101562 C 17.296875 -7.320312 14.699219 -7.128906 12.183594 -6.796875 C 11.878906 -6.769531 11.578125 -6.714844 11.300781 -6.824219 C 11.105469 -6.878906 10.914062 -6.988281 10.832031 -7.15625 Z M 10.832031 -7.15625 "/></g></g></g><g fill="#118fbf" fill-opacity="1"><g transform="translate(153.914389, 330.371929)"><g><path d="M 2.847656 -0.0273438 C 2.625 -0.332031 2.679688 -0.828125 2.707031 -1.160156 C 2.847656 -3.535156 2.761719 -5.914062 2.761719 -8.289062 C 2.761719 -8.980469 2.847656 -8.980469 2.847656 -9.671875 C 2.847656 -10.359375 2.734375 -10.359375 2.734375 -11.050781 C 2.734375 -11.714844 2.847656 -12.296875 2.789062 -12.957031 C 2.707031 -14.144531 2.734375 -15.390625 2.734375 -16.578125 C 2.734375 -17.128906 2.847656 -17.683594 2.761719 -18.234375 C 2.652344 -19.035156 2.707031 -19.644531 3.730469 -19.476562 C 4.695312 -19.285156 5.664062 -19.3125 6.660156 -19.3125 C 7.292969 -19.3125 7.488281 -19.808594 7.929688 -19.339844 C 8.398438 -18.871094 7.957031 -17.765625 7.929688 -17.214844 C 7.847656 -16.082031 8.039062 -15.003906 7.847656 -13.84375 C 7.679688 -12.984375 7.847656 -12.515625 8.757812 -13.011719 C 10.554688 -13.953125 12.515625 -14.476562 14.449219 -15.03125 C 16.496094 -15.582031 18.484375 -16.300781 20.472656 -17.019531 C 21.773438 -17.460938 23.097656 -17.929688 24.394531 -18.402344 C 25.472656 -18.761719 26.660156 -19.175781 27.824219 -19.3125 C 30.972656 -19.699219 34.203125 -19.089844 37.355469 -19.421875 C 37.492188 -19.421875 37.628906 -19.449219 37.742188 -19.394531 C 37.769531 -19.089844 37.273438 -18.925781 36.96875 -18.84375 C 36.441406 -18.675781 35.863281 -18.621094 35.335938 -18.457031 C 34.261719 -18.125 33.210938 -17.738281 32.1875 -17.351562 C 31.496094 -17.101562 31.496094 -17.101562 30.804688 -16.855469 C 28.511719 -15.996094 26.246094 -15.167969 23.953125 -14.339844 L 22.574219 -13.84375 C 21.910156 -13.59375 21.273438 -13.289062 20.582031 -13.039062 C 20.03125 -12.847656 19.007812 -12.875 18.566406 -12.515625 C 17.738281 -11.878906 19.808594 -11.355469 20.140625 -11.164062 C 23.125 -9.421875 26.027344 -7.542969 28.925781 -5.636719 C 30.363281 -4.667969 31.800781 -3.730469 33.265625 -2.761719 C 34.453125 -1.988281 35.667969 -0.96875 37.050781 -0.550781 C 37.214844 -0.496094 37.410156 -0.441406 37.546875 -0.332031 C 37.6875 -0.222656 37.769531 -0.164062 37.742188 0.0273438 C 37.714844 0.277344 31.746094 0.0273438 31.136719 0.0820312 C 28.84375 0.195312 26.882812 -1.574219 25.171875 -2.816406 C 23.347656 -4.144531 21.414062 -5.332031 19.476562 -6.546875 C 18.457031 -7.210938 17.433594 -7.902344 16.410156 -8.59375 C 15.886719 -8.953125 15.363281 -9.3125 14.863281 -9.671875 C 14.339844 -10.03125 13.871094 -10.527344 13.207031 -10.417969 C 12.351562 -10.304688 11.550781 -9.671875 10.746094 -9.367188 C 10.222656 -9.199219 9.726562 -8.925781 9.199219 -8.8125 C 8.703125 -8.703125 8.039062 -8.757812 7.902344 -8.152344 C 7.820312 -7.847656 7.902344 -7.515625 7.957031 -7.183594 C 8.011719 -6.742188 7.957031 -6.300781 7.957031 -5.828125 C 7.902344 -4.753906 7.929688 -3.648438 7.984375 -2.570312 C 8.011719 -1.683594 8.730469 0.550781 7.074219 0.0546875 C 6.546875 -0.109375 5.996094 0.0273438 5.46875 0.0273438 C 5.082031 0 4.667969 -0.136719 4.28125 -0.0546875 C 3.949219 0 3.34375 0.304688 2.984375 0.109375 C 2.929688 0.0820312 2.875 0.0273438 2.847656 -0.0273438 Z M 2.847656 -0.0273438 "/></g></g></g><g fill="#118fbf" fill-opacity="1"><g transform="translate(194.52342, 330.371929)"><g><path d="M 2.761719 0 C 2.679688 -0.136719 2.652344 -0.304688 2.625 -0.441406 C 2.460938 -1.519531 2.761719 -2.542969 2.761719 -3.621094 C 2.789062 -5.25 2.789062 -6.878906 2.789062 -8.539062 C 2.789062 -10.886719 2.789062 -13.234375 2.761719 -15.582031 C 2.761719 -16.578125 2.070312 -19.394531 3.507812 -19.394531 L 29.949219 -19.3125 C 30.308594 -19.3125 30.695312 -19.285156 30.917969 -19.007812 C 31.054688 -18.816406 31.082031 -18.566406 31.082031 -18.316406 L 31.164062 -16.355469 C 31.164062 -16.023438 31.164062 -15.636719 30.890625 -15.417969 C 30.390625 -15.003906 29.617188 -15.167969 29.039062 -15.222656 C 28.238281 -15.277344 27.40625 -15.25 26.578125 -15.25 C 24.617188 -15.277344 22.628906 -15.277344 20.667969 -15.304688 C 16.742188 -15.335938 12.847656 -15.335938 8.953125 -15.363281 C 7.238281 -15.363281 7.734375 -13.539062 7.707031 -12.238281 C 7.679688 -11.824219 7.875 -11.328125 8.289062 -11.246094 C 8.898438 -11.105469 10.085938 -11.355469 10.804688 -11.355469 C 14.449219 -11.355469 18.097656 -11.382812 21.742188 -11.382812 C 23.566406 -11.410156 25.390625 -11.410156 27.214844 -11.4375 C 28.265625 -11.4375 31.332031 -12.128906 31.136719 -10.359375 L 30.890625 -8.066406 C 30.890625 -7.929688 30.863281 -7.792969 30.777344 -7.707031 C 30.667969 -7.597656 30.503906 -7.597656 30.363281 -7.597656 C 23.84375 -7.570312 17.296875 -7.570312 10.804688 -7.570312 C 10.140625 -7.570312 9.585938 -7.542969 8.953125 -7.734375 C 8.539062 -7.847656 8.011719 -7.875 7.792969 -7.515625 C 7.460938 -6.90625 7.625 -6.050781 7.707031 -5.414062 C 7.792969 -4.695312 7.707031 -3.980469 8.621094 -3.980469 C 15.75 -4.007812 22.875 -4.035156 30.003906 -4.089844 C 31.414062 -4.089844 31.082031 -3.5625 31.082031 -2.542969 C 31.054688 -1.878906 31.523438 -0.800781 31.136719 -0.195312 C 30.722656 0.523438 30.171875 -0.0273438 29.5625 -0.0273438 C 28.871094 -0.0273438 28.871094 -0.0546875 28.152344 -0.0546875 C 20.472656 -0.0546875 12.792969 0.136719 5.113281 -0.0273438 C 4.722656 -0.0546875 4.308594 -0.0546875 3.921875 0.0546875 C 3.5625 0.136719 3.09375 0.332031 2.816406 0.0546875 Z M 2.761719 0 "/></g></g></g><g fill="#118fbf" fill-opacity="1"><g transform="translate(229.859838, 330.371929)"><g><path d="M 2.652344 0.0273438 C 2.210938 -0.359375 2.734375 -1.105469 2.789062 -1.601562 C 2.847656 -2.128906 2.652344 -2.625 2.652344 -3.175781 C 2.652344 -4.0625 2.679688 -4.945312 2.679688 -5.800781 C 2.652344 -7.542969 2.625 -9.3125 2.625 -11.050781 L 2.625 -12.433594 C 2.625 -14.007812 2.597656 -15.554688 2.597656 -17.128906 C 2.570312 -17.875 2.375 -18.761719 3.066406 -19.257812 C 4.035156 -19.976562 5.773438 -19.367188 6.878906 -19.367188 C 11.851562 -19.367188 16.855469 -19.671875 21.828125 -19.257812 C 25.585938 -18.953125 29.617188 -18.042969 32.710938 -15.804688 C 33.101562 -15.5 33.515625 -15.277344 33.84375 -14.949219 C 36 -12.847656 36.527344 -9.285156 35.0625 -6.632812 C 33.597656 -3.949219 30.640625 -2.292969 27.824219 -1.355469 C 27.378906 -1.214844 26.910156 -1.105469 26.46875 -0.996094 C 26 -0.855469 25.558594 -0.800781 25.085938 -0.71875 C 18.125 0.746094 10.664062 -0.414062 3.589844 0.195312 C 3.371094 0.195312 3.121094 0.222656 2.902344 0.136719 C 2.789062 0.109375 2.734375 0.0546875 2.652344 0.0273438 Z M 7.820312 -3.621094 C 8.011719 -3.425781 8.371094 -3.425781 8.648438 -3.453125 C 14.644531 -3.894531 20.886719 -2.847656 26.660156 -5.054688 C 29.148438 -5.996094 31.523438 -8.480469 30.503906 -11.328125 C 30.363281 -11.769531 30.117188 -12.15625 29.8125 -12.515625 C 28.898438 -13.621094 27.710938 -14.285156 26.359375 -14.726562 C 22.378906 -16.023438 17.738281 -15.777344 13.621094 -15.777344 L 8.730469 -15.777344 C 7.320312 -15.777344 7.875 -15.335938 7.875 -14.367188 C 7.875 -13.703125 7.765625 -13.703125 7.765625 -13.039062 C 7.765625 -12.351562 7.820312 -12.351562 7.820312 -11.6875 C 7.820312 -11.023438 7.820312 -11.023438 7.820312 -10.332031 L 7.820312 -5.46875 C 7.820312 -5 7.460938 -4.007812 7.792969 -3.648438 C 7.792969 -3.621094 7.820312 -3.621094 7.820312 -3.621094 Z M 7.820312 -3.621094 "/></g></g></g><g fill="#118fbf" fill-opacity="1"><g transform="translate(268.92297, 330.371929)"><g><path d="M 0.910156 -9.640625 C 0.828125 -11.023438 1.160156 -12.460938 2.101562 -13.871094 C 4.421875 -17.296875 8.785156 -18.789062 12.710938 -19.5625 C 16.992188 -20.417969 21.46875 -20.335938 25.667969 -19.394531 C 29.285156 -18.59375 32.878906 -17.046875 35.199219 -14.230469 C 37.492188 -11.492188 37.628906 -7.847656 35.421875 -5.054688 C 34.261719 -3.5625 32.601562 -2.488281 30.917969 -1.628906 C 27.378906 0.0820312 23.429688 0.773438 19.449219 0.910156 C 16.164062 1.023438 12.847656 0.773438 9.726562 -0.25 C 5.691406 -1.574219 1.214844 -5.386719 0.910156 -9.640625 Z M 6.078125 -9.613281 C 6.1875 -7.183594 8.425781 -4.972656 10.859375 -4.007812 C 15.335938 -2.210938 20.804688 -1.742188 25.417969 -3.34375 C 29.257812 -4.695312 34.148438 -9.226562 30.144531 -13.152344 C 29.230469 -14.035156 28.070312 -14.644531 26.910156 -15.140625 C 21.882812 -17.183594 16.082031 -17.074219 11.023438 -15.195312 C 9.585938 -14.671875 8.179688 -13.953125 7.238281 -12.792969 C 6.355469 -11.742188 6.050781 -10.664062 6.078125 -9.613281 Z M 6.078125 -9.613281 "/></g></g></g><g fill="#118fbf" fill-opacity="1"><g transform="translate(309.117916, 330.371929)"><g><path d="M 2.070312 0 C 1.796875 -0.332031 2.15625 -1.023438 2.15625 -1.382812 L 2.15625 -2.761719 C 2.15625 -6.601562 2.128906 -10.417969 2.101562 -14.257812 L 2.101562 -17.242188 C 2.101562 -17.683594 2.101562 -18.097656 2.015625 -18.511719 C 1.824219 -19.394531 2.292969 -19.5625 3.121094 -19.421875 C 4.308594 -19.230469 5.46875 -19.3125 6.6875 -19.367188 C 6.90625 -19.367188 7.128906 -19.394531 7.320312 -19.285156 C 7.734375 -19.121094 7.957031 -18.59375 8.261719 -18.289062 C 8.566406 -17.957031 8.898438 -17.65625 9.199219 -17.351562 C 11.246094 -15.195312 13.289062 -13.011719 15.304688 -10.859375 C 17.242188 -8.785156 19.121094 -6.601562 21.191406 -4.667969 C 21.441406 -4.449219 21.6875 -4.226562 21.855469 -3.949219 C 22.019531 -3.675781 22.132812 -3.316406 22.433594 -3.175781 C 23.070312 -2.875 23.292969 -3.8125 23.59375 -4.144531 C 24.8125 -5.414062 26.109375 -6.574219 27.324219 -7.820312 C 28.402344 -8.925781 29.3125 -10.140625 30.363281 -11.246094 C 30.863281 -11.742188 30.945312 -11.6875 31.414062 -12.183594 C 31.882812 -12.683594 31.828125 -12.765625 32.296875 -13.289062 C 32.796875 -13.785156 32.769531 -13.816406 33.238281 -14.3125 C 33.734375 -14.808594 33.84375 -14.726562 34.316406 -15.222656 C 34.785156 -15.75 34.730469 -15.804688 35.226562 -16.300781 C 35.695312 -16.796875 35.667969 -16.855469 36.140625 -17.351562 L 36.886719 -17.988281 C 37.214844 -18.261719 37.382812 -18.621094 37.6875 -18.925781 C 38.265625 -19.535156 38.957031 -19.339844 39.730469 -19.3125 C 40.613281 -19.257812 41.527344 -19.3125 42.410156 -19.449219 C 42.546875 -19.449219 42.6875 -19.476562 42.851562 -19.476562 C 43.792969 -19.367188 43.15625 -18.457031 43.15625 -17.957031 C 43.15625 -17.269531 43.183594 -17.269531 43.183594 -16.578125 C 43.183594 -15.886719 43.324219 -15.886719 43.324219 -15.195312 C 43.324219 -10.886719 43.210938 -6.546875 43.210938 -2.238281 C 43.183594 -1.851562 43.183594 -1.464844 43.238281 -1.105469 C 43.292969 -0.71875 43.542969 -0.164062 43.128906 0.109375 C 42.824219 0.277344 42.605469 0.0546875 42.328125 0 C 42.023438 -0.0820312 41.664062 -0.0273438 41.359375 0 C 40.78125 0.0546875 40.226562 -0.0820312 39.675781 -0.0820312 C 39.179688 -0.0820312 38.15625 0.496094 37.988281 -0.332031 C 37.933594 -0.746094 38.128906 -1.242188 38.15625 -1.628906 C 38.210938 -2.210938 38.183594 -2.789062 38.15625 -3.371094 C 37.988281 -6.132812 38.101562 -8.925781 38.101562 -11.660156 C 38.101562 -12.019531 38.375 -12.296875 38.40625 -12.652344 C 38.433594 -12.957031 38.15625 -13.457031 37.769531 -13.179688 C 37.6875 -13.097656 37.628906 -13.011719 37.601562 -12.902344 C 36.664062 -11.105469 34.785156 -9.671875 33.375 -8.207031 C 31.746094 -6.519531 30.171875 -4.722656 28.539062 -3.011719 C 28.015625 -2.460938 27.464844 -1.960938 26.964844 -1.410156 C 26.605469 -1.023438 26.332031 -0.46875 25.886719 -0.136719 C 25.390625 0.222656 24.949219 0.0273438 24.394531 0 C 23.207031 -0.109375 22.019531 0.0273438 20.832031 0.0820312 C 20.527344 0.109375 20.222656 0.109375 19.949219 0.0273438 C 19.175781 -0.164062 18.703125 -0.96875 18.207031 -1.519531 C 16.328125 -3.535156 14.421875 -5.554688 12.488281 -7.570312 C 11.605469 -8.507812 10.691406 -9.449219 9.808594 -10.417969 C 9.089844 -11.21875 8.121094 -11.878906 7.734375 -12.902344 C 7.679688 -13.039062 7.625 -13.207031 7.488281 -13.261719 C 6.574219 -13.675781 7.128906 -11.964844 7.15625 -11.714844 C 7.378906 -9.863281 7.238281 -7.984375 7.183594 -6.105469 C 7.15625 -5.277344 7.15625 -4.476562 7.210938 -3.648438 C 7.238281 -2.761719 7.019531 -1.878906 7.238281 -0.996094 C 7.460938 -0.0820312 7.183594 0.304688 6.214844 0.109375 C 5.636719 -0.0273438 5.054688 0.0546875 4.476562 0 C 3.921875 -0.0546875 3.425781 -0.109375 2.902344 0.0546875 C 2.761719 0.109375 2.625 0.164062 2.488281 0.164062 C 2.292969 0.136719 2.15625 0.0820312 2.070312 0 Z M 2.070312 0 "/></g></g></g></svg>