<svg width="37" height="37" viewBox="0 0 37 37" xmlns="http://www.w3.org/2000/svg">
<path d="M6.07836 19.7547H15.1959C15.5989 19.7547 15.9854 19.5946 16.2704 19.3096C16.5553 19.0246 16.7154 18.6381 16.7154 18.2351V6.07842C16.7154 5.6754 16.5553 5.28889 16.2704 5.00391C15.9854 4.71894 15.5989 4.55884 15.1959 4.55884H6.07836C5.67534 4.55884 5.28883 4.71894 5.00385 5.00391C4.71888 5.28889 4.55878 5.6754 4.55878 6.07842V18.2351C4.55878 18.6381 4.71888 19.0246 5.00385 19.3096C5.28883 19.5946 5.67534 19.7547 6.07836 19.7547ZM4.55878 30.3918C4.55878 30.7948 4.71888 31.1813 5.00385 31.4663C5.28883 31.7512 5.67534 31.9113 6.07836 31.9113H15.1959C15.5989 31.9113 15.9854 31.7512 16.2704 31.4663C16.5553 31.1813 16.7154 30.7948 16.7154 30.3918V24.3134C16.7154 23.9104 16.5553 23.5239 16.2704 23.2389C15.9854 22.9539 15.5989 22.7938 15.1959 22.7938H6.07836C5.67534 22.7938 5.28883 22.9539 5.00385 23.2389C4.71888 23.5239 4.55878 23.9104 4.55878 24.3134V30.3918ZM19.7546 30.3918C19.7546 30.7948 19.9147 31.1813 20.1997 31.4663C20.4847 31.7512 20.8712 31.9113 21.2742 31.9113H30.3917C30.7947 31.9113 31.1812 31.7512 31.4662 31.4663C31.7512 31.1813 31.9113 30.7948 31.9113 30.3918V19.7547C31.9113 19.3517 31.7512 18.9651 31.4662 18.6802C31.1812 18.3952 30.7947 18.2351 30.3917 18.2351H21.2742C20.8712 18.2351 20.4847 18.3952 20.1997 18.6802C19.9147 18.9651 19.7546 19.3517 19.7546 19.7547V30.3918ZM21.2742 15.1959H30.3917C30.7947 15.1959 31.1812 15.0358 31.4662 14.7508C31.7512 14.4659 31.9113 14.0794 31.9113 13.6763V6.07842C31.9113 5.6754 31.7512 5.28889 31.4662 5.00391C31.1812 4.71894 30.7947 4.55884 30.3917 4.55884H21.2742C20.8712 4.55884 20.4847 4.71894 20.1997 5.00391C19.9147 5.28889 19.7546 5.6754 19.7546 6.07842V13.6763C19.7546 14.0794 19.9147 14.4659 20.1997 14.7508C20.4847 15.0358 20.8712 15.1959 21.2742 15.1959Z"/>
</svg>
