<svg width="374" height="506" viewBox="0 0 374 506" xmlns="http://www.w3.org/2000/svg">
<path d="M318.27 56.3398H298.899L298.173 304.36C305.091 305.875 311.81 308.047 318.267 310.915L318.27 56.3398Z"/>
<path d="M159.3 163.7C173.562 163.7 185.159 152.106 185.159 137.841C185.159 123.579 173.565 111.982 159.3 111.982C145.038 111.982 133.441 123.576 133.441 137.841C133.472 152.107 145.07 163.7 159.3 163.7ZM146.749 133.989H155.444V125.294C155.444 123.184 157.159 121.438 159.3 121.438C161.441 121.438 163.155 123.153 163.155 125.294V133.989H171.851C173.991 133.989 175.706 135.704 175.706 137.844C175.706 139.985 173.991 141.7 171.851 141.7H163.155V150.395C163.155 152.536 161.441 154.251 159.3 154.251C157.159 154.251 155.444 152.536 155.444 150.395V141.7H146.749C144.609 141.7 142.894 139.985 142.894 137.844C142.929 135.735 144.64 133.989 146.749 133.989Z"/>
<path d="M71.48 201.18H96.613V226.313H71.48V201.18Z"/>
<path d="M71.48 267.89H96.613V293.023H71.48V267.89Z"/>
<path d="M71.48 334.59H96.613V359.723H71.48V334.59Z"/>
<path d="M275.48 309.62C221.359 309.62 177.316 353.663 177.316 407.784C177.316 461.905 221.359 505.948 275.48 505.948C329.601 505.948 373.644 461.905 373.644 407.784C373.675 353.663 329.636 309.62 275.48 309.62ZM331.48 372.737L255.914 448.303C255.188 449.03 254.199 449.424 253.18 449.424C252.16 449.424 251.172 449.03 250.445 448.303L219.449 417.307C217.934 415.791 217.934 413.354 219.449 411.873C220.965 410.358 223.402 410.358 224.883 411.873L253.18 440.135L326.012 367.303C327.528 365.788 329.965 365.788 331.446 367.303C332.996 368.815 332.996 371.253 331.481 372.737H331.48Z"/>
<path d="M67.8201 393.59H30.8591L67.8201 436.051V393.59Z"/>
<path d="M71.6701 450.19C70.5178 450.19 69.4631 449.663 68.7053 448.807L19.5253 392.28C18.7988 391.456 18.5058 390.401 18.6034 389.347C18.6034 368.792 18.998 350.64 19.33 336.05C19.5292 326.96 19.6933 319.812 19.6933 314.702L19.6894 56.3416H0.318359V469.692H189.528C185.114 463.563 181.392 457.044 178.395 450.192L71.6701 450.19Z"/>
<path d="M126.03 0.0119629H192.604V25.774H126.03V0.0119629Z"/>
<path d="M232.59 52.652V52.5544V52.4567V33.4487L196.453 33.4448H86.0332V52.4528V52.5505V52.6481V79.6281H232.583L232.59 52.652Z"/>
<path d="M75.5302 389.74V442.513H175.409C171.589 431.509 169.612 419.818 169.612 407.825C169.612 390.958 173.534 374.72 180.909 360.095L127.479 360.091C125.339 360.091 123.624 358.376 123.624 356.236C123.624 354.095 125.339 352.38 127.479 352.38H185.225C187.432 348.79 189.901 345.298 192.573 341.939L127.479 341.943C125.338 341.943 123.624 340.228 123.624 338.087C123.624 335.947 125.338 334.232 127.479 334.232H199.323C199.753 333.802 200.179 333.341 200.608 332.916C220.604 312.92 247.186 301.92 275.483 301.92C280.557 301.92 285.561 302.283 290.471 302.974L291.198 56.4043H240.272V83.4823C240.272 85.6229 238.557 87.3378 236.416 87.3378H82.1863C80.0457 87.3378 78.3308 85.623 78.3308 83.4823V56.4043H27.4048V314.664C27.4048 319.836 27.2407 327.051 27.0415 336.176C26.7134 349.914 26.3501 366.813 26.3149 385.852H71.7099C73.788 385.884 75.5341 387.598 75.5341 389.739L75.5302 389.74ZM159.3 104.31C177.78 104.31 192.835 119.365 192.835 137.845C192.835 156.325 177.78 171.38 159.3 171.38C140.82 171.38 125.765 156.325 125.765 137.845C125.765 119.365 140.82 104.31 159.3 104.31V104.31ZM127.48 200.826H250.98C253.121 200.826 254.836 202.541 254.836 204.682C254.836 206.791 253.121 208.537 250.98 208.537H127.48C125.34 208.537 123.625 206.822 123.625 204.682C123.625 202.541 125.371 200.826 127.48 200.826ZM127.48 218.978H250.98C253.121 218.978 254.836 220.693 254.836 222.833C254.836 224.943 253.121 226.689 250.98 226.689L127.48 226.685C125.34 226.685 123.625 224.97 123.625 222.83C123.625 220.689 125.371 218.978 127.48 218.978V218.978ZM127.48 267.533H250.98C253.121 267.533 254.836 269.248 254.836 271.388C254.836 273.529 253.121 275.244 250.98 275.244L127.48 275.24C125.34 275.24 123.625 273.525 123.625 271.385C123.625 269.279 125.371 267.533 127.48 267.533V267.533ZM127.48 285.681H250.98C253.121 285.681 254.836 287.396 254.836 289.536C254.836 291.677 253.121 293.392 250.98 293.392H127.48C125.34 293.392 123.625 291.677 123.625 289.536C123.625 287.396 125.371 285.681 127.48 285.681ZM63.7692 197.333C63.7692 195.192 65.484 193.477 67.6247 193.477H100.469C102.609 193.477 104.324 195.192 104.324 197.333V230.177C104.324 232.286 102.609 234.033 100.469 234.033H67.6247C65.4841 234.033 63.7692 232.318 63.7692 230.177V197.333ZM63.7692 264.04C63.7692 261.899 65.484 260.185 67.6247 260.185H100.469C102.609 260.185 104.324 261.899 104.324 264.04V296.884C104.324 299.025 102.609 300.74 100.469 300.74H67.6247C65.4841 300.74 63.7692 299.025 63.7692 296.884V264.04ZM63.7692 363.587V330.747C63.7692 328.606 65.484 326.892 67.6247 326.892H100.469C102.609 326.892 104.324 328.606 104.324 330.747V363.591C104.324 365.732 102.609 367.447 100.469 367.447H67.6247C65.4841 367.443 63.7692 365.732 63.7692 363.587V363.587Z"/>
</svg>
