<svg width="36" height="41" viewBox="0 0 36 41" xmlns="http://www.w3.org/2000/svg">
<path d="M28.2857 10.25C28.2857 15.9115 23.6812 20.5 17.9277 20.5C12.3188 20.5 7.64196 15.9115 7.64196 10.25C7.64196 4.58928 12.3188 0 17.9277 0C23.6812 0 28.2857 4.58928 28.2857 10.25ZM23.0705 28.9883C20.925 29.5568 19.2134 31.5668 19.2134 33.9531V35.875C19.2134 36.2113 19.4223 36.5396 19.6634 36.7799L20.9491 38.0611C21.4473 38.5656 22.267 38.5656 22.7652 38.0611C23.2714 37.5646 23.2714 36.7479 22.7652 36.2514L21.7848 35.3465V33.9531C21.7848 32.5357 23.0063 31.3906 24.3563 31.3906C25.8509 31.3906 27 32.5357 27 33.9531V35.3465L26.092 36.2514C25.5857 36.7479 25.5857 37.5646 26.092 38.0611C26.5902 38.5656 27.4098 38.5656 27.908 38.0611L29.1937 36.7799C29.4348 36.5396 29.5714 36.2113 29.5714 35.875V33.9531C29.5714 31.5668 27.9321 29.5568 25.7143 28.9883V24.7281C31.6205 26.1615 36 31.3986 36 37.7969V38.4375C36 39.8549 34.8509 41 33.4286 41H2.57143C1.15152 41 0 39.8549 0 38.4375V37.7969C0 31.4707 4.38188 26.1615 10.2857 24.7281V29.6529C8.42946 30.2055 7.07143 31.9191 7.07143 33.9531C7.07143 36.4275 9.08839 38.4375 11.5714 38.4375C14.0545 38.4375 16.0714 36.4275 16.0714 33.9531C16.0714 31.9191 14.7134 30.2055 12.8571 29.6529V24.3598C13.0741 24.3518 13.283 24.3438 13.5 24.3438H22.5C22.717 24.3438 22.9259 24.3518 23.1429 24.3598L23.0705 28.9883ZM13.4277 33.9531C13.4277 35.0182 12.6402 35.875 11.4991 35.875C10.5027 35.875 9.57054 35.0182 9.57054 33.9531C9.57054 32.8881 10.5027 32.0312 11.4991 32.0312C12.6402 32.0312 13.4277 32.8881 13.4277 33.9531Z" />
</svg>
