<svg width="44" height="44" viewBox="0 0 44 44" xmlns="http://www.w3.org/2000/svg">
<path d="M15 30.875C9.99375 30.875 0 33.3875 0 38.375V44H30V38.375C30 33.3875 20.0063 30.875 15 30.875Z"/>
<path d="M15 29C19.1421 29 22.5 25.6421 22.5 21.5C22.5 17.3579 19.1421 14 15 14C10.8579 14 7.5 17.3579 7.5 21.5C7.5 25.6421 10.8579 29 15 29Z"/>
<path d="M37.5 10.25C38.5355 10.25 39.375 9.41053 39.375 8.375C39.375 7.33947 38.5355 6.5 37.5 6.5C36.4645 6.5 35.625 7.33947 35.625 8.375C35.625 9.41053 36.4645 10.25 37.5 10.25Z"/>
<path d="M40.3125 6.5C40.8303 6.5 41.25 6.08027 41.25 5.5625C41.25 5.04473 40.8303 4.625 40.3125 4.625C39.7947 4.625 39.375 5.04473 39.375 5.5625C39.375 6.08027 39.7947 6.5 40.3125 6.5Z"/>
<path d="M38.4375 2.75C38.9553 2.75 39.375 2.33027 39.375 1.8125C39.375 1.29473 38.9553 0.875 38.4375 0.875C37.9197 0.875 37.5 1.29473 37.5 1.8125C37.5 2.33027 37.9197 2.75 38.4375 2.75Z"/>
<path d="M30 12.125V14H31.875L31.8806 32.8081C31.875 35.96 33.75 38.375 36.5625 38.375C39.375 38.375 41.25 36.1119 41.25 32.75V14H43.125V12.125H30ZM39.375 27.125L38.3156 27.92C37.7412 28.3282 37.0515 28.5423 36.3469 28.5312H35.625V27.125H33.75V23.375H35.625V21.5H33.75V17.75H35.625V15.875H33.75V14H39.375V27.125Z"/>
</svg>
