<svg width="26" height="33" viewBox="0 0 26 33"
    xmlns="http://www.w3.org/2000/svg">
    <path d="M13 21.45C16.1912 21.4501 19.2727 22.6235 21.6663 24.75C24.0598 26.8766 25.6007 29.8101 26 33H0C0.399252 29.8101 1.94023 26.8766 4.33375 24.75C6.72726 22.6235 9.80878 21.4501 13 21.45ZM10.0309 25.212C7.69233 25.961 5.71473 27.5611 4.484 29.7H13L10.0309 25.212ZM15.9708 25.212L13 29.7H21.5144C20.285 27.5612 18.3085 25.9611 15.9708 25.212ZM22.8262 0V9.9C22.8262 12.5256 21.7909 15.0437 19.9481 16.9004C18.1054 18.757 15.6061 19.8 13 19.8C10.3939 19.8 7.89462 18.757 6.05186 16.9004C4.2091 15.0437 3.17385 12.5256 3.17385 9.9V0H22.8262ZM6.44923 9.9C6.44923 13.5465 9.3807 16.5 13 16.5C16.6193 16.5 19.5508 13.5465 19.5508 9.9H6.44923ZM19.5508 3.3H6.44923V6.6H19.5508V3.3Z"/>
</svg>
