<svg width="424" height="548" viewBox="0 0 424 548" xmlns="http://www.w3.org/2000/svg">
<path d="M412.2 43.895C396.813 17.239 368.376 0.816989 337.598 0.812989C306.817 0.809083 278.375 17.227 262.985 43.879C247.59 70.531 247.587 103.371 262.973 130.027C278.36 156.683 306.797 173.105 337.578 173.109C368.355 173.113 396.797 156.699 412.187 130.043C427.582 103.391 427.585 70.551 412.199 43.895H412.2ZM276.94 95.309C274.714 95.3324 272.569 94.4613 270.983 92.8949C269.397 91.3285 268.507 89.1918 268.507 86.9613C268.507 84.7347 269.397 82.598 270.983 81.0277C272.569 79.4613 274.714 78.5902 276.94 78.6136C281.518 78.6644 285.202 82.387 285.202 86.9613C285.202 91.5394 281.518 95.2621 276.94 95.309ZM337.596 17.871H337.6C342.217 17.9335 345.932 21.6874 345.944 26.3046C345.905 30.8944 342.174 34.5937 337.584 34.5937C332.995 34.5937 329.264 30.8945 329.225 26.3046C329.241 21.6757 332.971 17.9218 337.6 17.871H337.596ZM337.596 156.021H337.6C332.967 155.982 329.233 152.22 329.225 147.587C329.28 143.009 333.006 139.33 337.584 139.33C342.163 139.33 345.889 143.009 345.944 147.587C345.94 152.208 342.221 155.97 337.6 156.021H337.596ZM375.213 126.806L363.447 126.431L340.814 102.462V102.466C339.759 102.689 338.677 102.794 337.599 102.782C333.416 102.806 329.396 101.169 326.423 98.2276C323.451 95.2862 321.767 91.2862 321.744 87.1026C321.755 82.8878 323.423 78.8487 326.392 75.8526C329.357 72.8604 333.384 71.1534 337.599 71.1065C338.521 71.1065 339.443 71.1924 340.353 71.3682L364.056 31.2272L371.677 29.2858L373.618 36.9069L349.884 77.0749C353.041 80.9929 354.17 86.1687 352.927 91.0439L375.56 115.013L375.213 126.806ZM398.225 95.302L398.229 95.3059C393.651 95.259 389.967 91.5364 389.967 86.9582C389.967 82.384 393.651 78.6613 398.229 78.6144C400.456 78.591 402.6 79.4581 404.186 81.0246C405.772 82.5949 406.663 84.7316 406.663 86.9582C406.663 89.1887 405.772 91.3254 404.186 92.8918C402.6 94.4582 400.456 95.3293 398.229 95.3059L398.225 95.302Z"/>
<path d="M284.32 348.38L187.019 329.161V289.884L180.832 229.048V229.044C176.828 200.31 169.324 172.173 158.477 145.263C156.735 140.744 153.645 136.869 149.629 134.161C145.61 131.458 140.856 130.052 136.012 130.138L117.969 130.419C105.067 130.622 92.762 135.888 83.711 145.087C74.6563 154.282 69.582 166.669 69.582 179.571V381.501C69.582 387.591 71.8242 393.47 75.875 398.017C79.9258 402.564 85.5078 405.462 91.559 406.161L260.169 425.639L270.642 525.005C271.279 533.447 276.302 540.932 283.869 544.721C291.435 548.51 300.439 548.049 307.58 543.506C314.721 538.963 318.951 531.006 318.725 522.545L311.01 379.995C310.811 372.479 308.061 365.257 303.209 359.515C298.362 353.769 291.701 349.847 284.326 348.39L284.32 348.38Z"/>
<path d="M76.6102 49.535C76.9657 52.5819 77.579 55.5975 78.4422 58.5428C84.9227 81.3438 105.641 108.481 126.661 106.133C147.681 103.785 161.934 72.7418 163.223 49.0738C163.415 46.0074 163.348 42.9332 163.024 39.8824L162.497 35.1558C161.356 24.9528 156.211 15.6208 148.192 9.21481C140.172 2.80461 129.934 -0.152387 119.731 0.984313L110.254 2.04291C100.051 3.18351 90.7191 8.32811 84.3091 16.3519C77.9029 24.3714 74.9419 34.6099 76.0825 44.8089L76.6102 49.535Z"/>
<path d="M182.37 441.83L80.5101 429.025C71.8968 427.943 63.9551 423.806 58.1351 417.365C52.3109 410.928 48.9906 402.611 48.7796 393.931L45.678 267.541C45.4788 259.42 40.9632 252.021 33.826 248.131C26.6932 244.244 18.025 244.455 11.092 248.69C4.15901 252.924 0.00999818 260.534 0.208998 268.659L3.31061 395.049C3.79108 414.611 11.2715 433.358 24.3966 447.873C37.5217 462.388 55.4196 471.713 74.8376 474.154L176.698 486.959C182.682 487.717 188.725 486.064 193.495 482.365C198.26 478.666 201.362 473.22 202.116 467.232C202.87 461.247 201.209 455.205 197.506 450.439C193.803 445.677 188.358 442.579 182.369 441.833L182.37 441.83Z"/>
</svg>
