<svg width="320" height="378" viewBox="0 0 320 378" xmlns="http://www.w3.org/2000/svg">
<path d="M84.4099 184.09C92.8591 201.266 103.871 215.723 116.32 225.981C129.886 237.126 144.492 243.071 159.707 243.661C160.316 243.688 160.918 243.696 161.527 243.696C175.183 243.696 189.355 237.743 203.687 225.973C216.132 215.723 227.144 201.262 235.593 184.086C242.66 177.957 270.706 152.195 268.577 131.27C268.128 126.891 266.249 121.079 260.202 116.274C261.347 102.184 262.194 60.6611 236.679 31.1881C219.308 11.1261 193.515 0.950139 160.003 0.942139H159.972C126.488 0.942139 100.695 11.1101 83.335 31.1611C57.808 60.6341 58.659 102.181 59.804 116.278C53.7571 121.083 51.8704 126.895 51.4212 131.274C49.304 152.2 77.3432 177.958 84.4092 184.09L84.4099 184.09ZM94.7109 41.01C109.086 24.405 131.047 15.987 159.973 15.987H160.004C188.91 15.9948 210.867 24.4011 225.254 40.979C245.414 64.202 246.106 97.893 245.363 112.139C216.504 110.315 195.746 97.584 177.371 86.127C162.34 76.7481 149.351 68.65 134.926 68.65C116.922 68.65 106.539 81.322 97.3872 92.502C90.2466 101.225 83.8442 108.893 74.6022 111.49C73.8952 96.908 74.8287 63.959 94.7112 41.01H94.7109ZM70.3049 127.334C89.0159 126.221 99.6679 113.463 109.028 102.029C117.087 92.1892 124.044 83.689 134.923 83.689C145.044 83.689 156.337 90.7281 169.411 98.888C189.415 111.365 214.286 126.724 249.837 127.415C252.739 129.345 253.458 131.27 253.606 132.786C254.685 143.29 237.333 162.989 224.676 173.626C223.852 174.314 223.192 175.173 222.731 176.138C215.13 191.982 205.239 205.2 194.133 214.349C181.93 224.369 170.715 228.986 160.297 228.626C148.426 228.165 136.848 223.364 125.879 214.356C114.766 205.2 104.875 191.985 97.2741 176.137C96.8132 175.168 96.1491 174.313 95.3288 173.621C82.6728 163.012 65.3288 143.332 66.3988 132.793C66.5551 131.254 67.2856 129.293 70.305 127.332L70.3049 127.334Z"/>
<path d="M7.67998 377.06H312.33C316.486 377.06 319.853 373.693 319.853 369.537C319.853 307.42 280.212 252.627 221.216 233.197C217.794 232.052 213.951 233.576 212.224 236.806C205.876 248.732 184.306 280.212 160.005 284.868C130.81 279.313 108.017 237.227 107.786 236.798C106.052 233.575 102.271 232.044 98.794 233.196C39.798 252.63 0.156982 307.426 0.156982 369.536C0.156982 373.693 3.52419 377.06 7.68039 377.06L7.67998 377.06ZM97.789 249.51C105.996 262.842 128.781 295.244 158.844 299.932C159.621 300.049 160.387 300.049 161.164 299.932C191.23 295.245 214.012 262.842 222.219 249.51C269.528 267.58 301.668 311.553 304.586 362.01H15.4263C18.3443 311.549 50.4853 267.569 97.7933 249.51H97.789Z"/>
<path d="M264.89 315.63H252.667V303.407C252.667 299.251 249.304 295.884 245.144 295.884C240.987 295.884 237.62 299.251 237.62 303.407V315.63H225.397C221.241 315.63 217.874 318.997 217.874 323.153C217.874 327.31 221.237 330.677 225.397 330.677H237.62V342.9C237.62 347.056 240.983 350.423 245.144 350.423C249.3 350.423 252.667 347.056 252.667 342.9V330.677H264.89C269.046 330.677 272.413 327.31 272.413 323.153C272.413 319.001 269.05 315.63 264.89 315.63Z"/>
</svg>
